/* XPM */
static char *icon_trash_32x32_xpm[] = {
"32 32 256 2 0 0",
"##	c None",
"$#	c #020204",
"%#	c #497DAC",
"&#	c #7EB6EF",
"'#	c #867A34",
"(#	c #C4B66C",
")#	c #0A4E9C",
"*#	c #4A9AF4",
"+#	c #4E462C",
",#	c #C2D2C4",
"-#	c #AC9A50",
".#	c #7D7D7C",
"/#	c #979BA9",
"0#	c #1A5EAC",
"1#	c #C3D2DD",
"2#	c #606474",
"3#	c #6B9DBF",
"4#	c #A8A6A0",
"5#	c #9FB7C1",
"6#	c #DCD9D9",
"7#	c #6E84AC",
"8#	c #BCB9B9",
"9#	c #79AACC",
":#	c #4A6284",
";#	c #B2CAC8",
"<#	c #2C3E58",
"=#	c #CCE0F8",
">#	c #5A8AB4",
"?#	c #BFC9CB",
"@#	c #6E607C",
"A#	c #6E9EDC",
"B#	c #8A7A94",
"C#	c #86B2CA",
"D#	c #3060A0",
"E#	c #A2BBE1",
"F#	c #6990BF",
"G#	c #305080",
"H#	c #AAAAB1",
"I#	c #71869F",
"J#	c #7A9EB4",
"K#	c #6891CD",
"L#	c #D4D4D3",
"M#	c #8C8C89",
"N#	c #4170AF",
"O#	c #222224",
"P#	c #5C7AA4",
"Q#	c #A8C2C4",
"R#	c #CECCCB",
"S#	c #A9AEC1",
"T#	c #51435C",
"U#	c #70A4CA",
"V#	c #9A9694",
"W#	c #E3E3E2",
"X#	c #D4C784",
"Y#	c #6A7EA4",
"Z#	c #4A75B1",
"#$	c #96AABC",
"$$	c #023284",
"%$	c #B8A858",
"&$	c #78AEE9",
"'$	c #3F6194",
"($	c #888C9E",
")$	c #92B8C4",
"*$	c #3E5A84",
"+$	c #515565",
",$	c #B4B7B8",
"-$	c #6293BA",
".$	c #BACAE4",
"/$	c #6B6F84",
"0$	c #768EAC",
"1$	c #423A14",
"2$	c #4A7AC2",
"3$	c #BED3EF",
"4$	c #BCB8D0",
"5$	c #D4E4F9",
"6$	c #BAAAD4",
"7$	c #8A9ED4",
"8$	c #749CCA",
"9$	c #4F729C",
":$	c #413F44",
";$	c #DCE8F7",
"<$	c #DFD49B",
"=$	c #5F8DB4",
">$	c #3262AC",
"?$	c #827A9C",
"@$	c #8C93A2",
"A$	c #5F526C",
"B$	c #7A6E8C",
"C$	c #7A6A2C",
"D$	c #A0BECC",
"E$	c #82B2DC",
"F$	c #A7CCF4",
"G$	c #6896BC",
"H$	c #6B96CF",
"I$	c #2E2339",
"J$	c #96B6E4",
"K$	c #E8E0B8",
"L$	c #125AB4",
"M$	c #669AC4",
"N$	c #9A9A94",
"O$	c #96A2B4",
"P$	c #80ACCB",
"Q$	c #BFCECE",
"R$	c #8DB0DA",
"S$	c #2A5A9C",
"T$	c #D3D8F2",
"U$	c #DACE90",
"V$	c #525A84",
"W$	c #C3DAF5",
"X$	c #403E54",
"Y$	c #5284B0",
"Z$	c #C4BA8C",
"#%	c #6C9CD1",
"$%	c #A8B8C0",
"%%	c #BCBEC0",
"&%	c #62627C",
"'%	c #AFC6E4",
"(%	c #AEB2BC",
")%	c #97B1D2",
"*%	c #505A70",
"+%	c #E3DAAE",
",%	c #608ECA",
"-%	c #B2CCE8",
".%	c #362C40",
"/%	c #968A4C",
"0%	c #C6C8CA",
"1%	c #386092",
"2%	c #B3B1AA",
"3%	c #7F8899",
"4%	c #021A74",
"5%	c #423A54",
"6%	c #1E1B21",
"7%	c #126ACC",
"8%	c #5E5224",
"9%	c #757371",
":%	c #BAB28C",
";%	c #1E468C",
"<%	c #38343C",
"=%	c #5A6E9C",
">%	c #286EC8",
"?%	c #C2B260",
"@%	c #A29664",
"A%	c #1E5294",
"B%	c #AE9ABC",
"C%	c #659BF4",
"D%	c #BABED4",
"E%	c #A68FB7",
"F%	c #6A76A0",
"G%	c #948440",
"H%	c #D1C174",
"I%	c #6D6D69",
"J%	c #A1C6F7",
"K%	c #584E68",
"L%	c #5885B4",
"M%	c #97C2F4",
"N%	c #A8A080",
"O%	c #6FA4E1",
"P%	c #87868A",
"Q%	c #222E3C",
"R%	c #B6D3F4",
"S%	c #A99D67",
"T%	c #7DA3D4",
"U%	c #7EAAF4",
"V%	c #1E58B0",
"W%	c #43699F",
"X%	c #4C84CC",
"Y%	c #A9A3BE",
"Z%	c #5776A4",
"#&	c #828277",
"$&	c #4A6A94",
"%&	c #2E2A0C",
"&&	c #728298",
"'&	c #CECEE4",
"(&	c #B2A674",
")&	c #EAEAEC",
"*&	c #C8C2E0",
"+&	c #CADAE4",
",&	c #668ABC",
"-&	c #96927C",
".&	c #B2BECC",
"/&	c #7A768C",
"0&	c #1A4E94",
"1&	c #627684",
"2&	c #ECE6D8",
"3&	c #757D91",
"4&	c #C6C2BC",
"5&	c #2A5E9C",
"6&	c #528ACC",
"7&	c #4A4A4C",
"8&	c #B4C5C9",
"9&	c #948C6C",
":&	c #8ABEF4",
";&	c #766684",
"<&	c #A2B2BC",
"=&	c #7796B9",
">&	c #414657",
"?&	c #56A2F4",
"@&	c #8AA6D0",
"A&	c #566A7C",
"B&	c #325680",
"C&	c #7EA6BC",
"D&	c #BAB2CE",
"E&	c #464644",
"F&	c #507DB0",
"G&	c #6A6664",
"H&	c #B2ACC8",
"I&	c #98B8DC",
"J&	c #C3CEE4",
"K&	c #93949E",
"L&	c #A1A5AE",
"M&	c #CCBE80",
"N&	c #2272DC",
"O&	c #E0DEDC",
"P&	c #4276AC",
"Q&	c #6E7684",
"R&	c #336AB4",
"S&	c #7F8296",
"T&	c #626A80",
"U&	c #828EA4",
"V&	c #665A2C",
"W&	c #3A3A3C",
"X&	c #265A9C",
"Y&	c #66A2E4",
"Z&	c #AEA26C",
"#'	c #82B2E4",
"$'	c #92B2BF",
"%'	c #023A94",
"&'	c #82722C",
"''	c #8EB6F7",
"('	c #345A90",
")'	c #767694",
"*'	c #86769C",
"+'	c #264E84",
",'	c #88BAEC",
"-'	c #9EB8D4",
".'	c #6A9AF4",
"/'	c #A0ACB8",
"0'	c #CAD2EC",
"1'	c #867294",
"2'	c #A6BAD4",
"3'	c #B6CEFC",
"4'	c #3662A4",
"5'	c #6186BC",
"6'	c #A6A294",
"7'	c #546684",
"8'	c #6292CC",
"9'	c #669BD7",
":'	c #2C2C3C",
";'	c #2E465C",
"<'	c #9E9E9C",
"='	c #6E90C4",
">'	c #365277",
"?'	c #82A2C4",
"@'	c #6E90CC",
"A'	c #76A6C4",
"B'	c #DACA8A",
"############################1$&'/%Z&-#G%########################",
"####################E&+#8%'#S%Z$+%2&H%?%C$######################",
"##########6%<%G&.##&V#N$N%:%U$<$+%K$B'H%-#%&####################",
"####:$:$I%P%H#,$R#R#(%)&4&4#6'X#U$<$<$H%%$V&?&*#################",
"####.#8#L#6#W#6#6#6#2%L#6#8#.#9&X#U$+%X#?%G%9%I%E&6%M%C%########",
"####.#0%W#W#O&W#6#6#2%4#M#P%P%G&X#U$<$B'?%S%R#8#-&.#3'J%''C%####",
"%'4%I%8#W#W#O&O&6#O&R#8#2%,$4&V#(&U$<$<$(&4&6#L#2%4&P%:$''U%.'N&",
"$$4%W&4#O&O&O&O&6#6#L#R#R#R#L#%%9&B'U$+%@%L#6#6#(%)&8#P%''U%.'V%",
"##;%Q%.#O&O&O&O&O&6#O&6#O&6#O&O&-&X#B'<$@%4&6#%%H#W#R#V#:$,%R&##",
"##6&Z#I#J$?#O&W#O&O&O&W#W#)&2&W#2%N%X#B':%:%6#4&N$-&@$7'<#'$G###",
"##>$,%?'-%W$R%@&7$D%W#O&)&)&)&W#L#M#(#M&Z$#&<&Y#'$'$*$*$;'*$S$##",
"##>%K#?''%W$=#5$W$3'.$'%2'E#I&)%R$8$F#G$-$F&,%,%5'P#Z%:#<#*$X&##",
"##7%,%K#-'3$=#=#5$5$5$5$=#=#R%R%F$J%E$T%9#G$,%9',%5'Z%*$4'*$)###",
"####,%K#)%-%W$=#T$T$5$=#=#=#W$R%F$F$,'9#U##%L%H$K#5'Z%*$'$B&####",
"####X%,%@&-'J&6$E%6$T$=#=#=#W$R%F$M%E$#%3#-$Y$8'K#,&9$>'4'+'####",
"####V%K#=&)%@#1'*&T$5$5$D&Y%?$&%0$P$3#G$M$9'9'#%K#,&Z%>'('0&####",
"######,%@'/$K%0'5$5$;$5$E%*'T#I$3&C&E$&##'&$O%#%K#,&Z%>'('######",
"######X%F#5%($=#5$T$3$.$E%1'T#5%R$J%M%:&&#U%O%9'H$,&9$>'S$######",
"######R&K#>&?$'%.$1#J&?#B%Y%;&I$*%E$,','&#&$O%#%H$,&Z%*$S$######",
"######>%K#V$)'J&=#5$+&8&8#8&.&K%:'0$9##%Y&9'8'H$H$F#9$*$A%######",
"########K#=%.%S#Y%0'5$?#,#,#8&@$6%1&C#P$3#U#Y$F&Z#Z%$&4'########",
"########,%K#I$T#;&*&;$Q$Q$Q$8&#$6%A&C#9#U#O%>#>#W%B&G#>$########",
"########R&@'F%.%A$6$;$+&?#Q$8&S&:'I#C#P$U#U#8'%#4'2$N#X&########",
"########L$H$F%.%K%4$;$T$4$,$B#X$T&$'C#9#A'3#=$F&W%2$N#V%########",
"##########,%T%7#1'J&;$D&B#@#A$/&5#)$C#A'U#3#>#P&W%2$N###########",
"##########W%H$T%#$1#;$'&H&Y%,$Q#D$)$P$A'-$>#>#P&6&2$R&9%.#.#####",
"##########*$@'T%R$8&;$;$1#8&;#Q#$'C&G$Y$%#P&F&N#X%%#W%.#.#.#.#.#",
"##########+$7'7#R$<&J&?#<&$%5##$J#=$9#&$Y&9'9'8'P#A&+$#&#&.#.##&",
"##########+$K&S&&&@$O$#$5#2'D$D$)$)$&$A'U#=&I#Q&Q&3&>&S&.##&S&##",
"############@$H#2%L&L&(%U&3%3%U&U&3%3&3&3%3%3%P%/$>&I%.##&######",
"##############*%S&,$0%R#0%0%(%(%(%L&(%/'L&K&/$+$5%#&.###########",
"######################+$T&/#K&/#@$@$S&&%+$######################"};
