/* XPM */
static char * icon_cpu_32x32_xpm[] = {
"32 32 357 2",
"  	c None",
". 	c #405F38",
"+ 	c #49693E",
"@ 	c #3F6239",
"# 	c #5E8D52",
"$ 	c #7EAF69",
"% 	c #6C8A61",
"& 	c #6B9E5F",
"* 	c #486940",
"= 	c #3B5D36",
"- 	c #7BB16A",
"; 	c #7BA66A",
"> 	c #6D6E6D",
", 	c #8A8A8A",
"' 	c #6F9462",
") 	c #81B66D",
"! 	c #41603A",
"~ 	c #334F32",
"{ 	c #638F58",
"] 	c #87B96F",
"^ 	c #585957",
"/ 	c #626262",
"( 	c #B7B7B7",
"_ 	c #E7E7E7",
": 	c #7E7E7E",
"< 	c #515151",
"[ 	c #5B7252",
"} 	c #7EB46B",
"| 	c #41613A",
"1 	c #3F5B3D",
"2 	c #639058",
"3 	c #80A36F",
"4 	c #60665D",
"5 	c #6B6B6B",
"6 	c #838383",
"7 	c #ABABAB",
"8 	c #858585",
"9 	c #A3A3A3",
"0 	c #7B7B7B",
"a 	c #4E4E4E",
"b 	c #4F554C",
"c 	c #7AB167",
"d 	c #4A6F41",
"e 	c #486446",
"f 	c #537250",
"g 	c #91B580",
"h 	c #7A7D78",
"i 	c #868686",
"j 	c #999999",
"k 	c #B2B2B2",
"l 	c #818181",
"m 	c #6D6D6D",
"n 	c #656565",
"o 	c #646464",
"p 	c #A8A8A8",
"q 	c #828282",
"r 	c #4F4F4F",
"s 	c #4D524A",
"t 	c #73A765",
"u 	c #4B6E42",
"v 	c #425D42",
"w 	c #5E835B",
"x 	c #98CB83",
"y 	c #8C8F8A",
"z 	c #CDCDCD",
"A 	c #DBDBDB",
"B 	c #808080",
"C 	c #7A7A7A",
"D 	c #7F7F7F",
"E 	c #727272",
"F 	c #686868",
"G 	c #676767",
"H 	c #6F6F6F",
"I 	c #6A6A6A",
"J 	c #595959",
"K 	c #5E7357",
"L 	c #74A764",
"M 	c #406038",
"N 	c #40613C",
"O 	c #476944",
"P 	c #8DC277",
"Q 	c #70726E",
"R 	c #D7D7D7",
"S 	c #F0F0F0",
"T 	c #BCBCBC",
"U 	c #B1B1B1",
"V 	c #A4A4A4",
"W 	c #979797",
"X 	c #C0C0C0",
"Y 	c #969696",
"Z 	c #ADADAD",
"` 	c #717171",
" .	c #696969",
"..	c #767676",
"+.	c #AFAFAF",
"@.	c #5C5C5C",
"#.	c #525F4E",
"$.	c #79A968",
"%.	c #4B7041",
"&.	c #43653D",
"*.	c #5D8750",
"=.	c #81B06E",
"-.	c #717D68",
";.	c #737373",
">.	c #C3C3C3",
",.	c #9E9E9E",
"'.	c #C1C1C1",
").	c #B5B5B5",
"!.	c #D4D4D4",
"~.	c #A6A6A6",
"{.	c #A9A9A9",
"].	c #777777",
"^.	c #6C6C6C",
"/.	c #919191",
"(.	c #666865",
"_.	c #7DB26B",
":.	c #466C3E",
"<.	c #466B39",
"[.	c #558346",
"}.	c #7CB268",
"|.	c #687E5A",
"1.	c #9D9F9B",
"2.	c #ECECEC",
"3.	c #9A9A9A",
"4.	c #8C8C8C",
"5.	c #9B9B9B",
"6.	c #B3B3B3",
"7.	c #B0B0B0",
"8.	c #BFBFBF",
"9.	c #898989",
"0.	c #787878",
"a.	c #757575",
"b.	c #787978",
"c.	c #556E4D",
"d.	c #629856",
"e.	c #3F6436",
"f.	c #386537",
"g.	c #69A059",
"h.	c #77A763",
"i.	c #404140",
"j.	c #848484",
"k.	c #8B8B8B",
"l.	c #797979",
"m.	c #BABABA",
"n.	c #8D8D8D",
"o.	c #D6D6D6",
"p.	c #939393",
"q.	c #777877",
"r.	c #3E3F3E",
"s.	c #485A42",
"t.	c #5C9651",
"u.	c #46753E",
"v.	c #4D7F47",
"w.	c #659B55",
"x.	c #6DA45B",
"y.	c #434D40",
"z.	c #3D3D3D",
"A.	c #464646",
"B.	c #666666",
"C.	c #888888",
"D.	c #8E8E8E",
"E.	c #AEAEAE",
"F.	c #7D7D7D",
"G.	c #AEAE9B",
"H.	c #3A3D3A",
"I.	c #3F653D",
"J.	c #5C954F",
"K.	c #588E4D",
"L.	c #487740",
"M.	c #2F5930",
"N.	c #40713E",
"O.	c #56884D",
"P.	c #6BA058",
"Q.	c #52684C",
"R.	c #C1C1AB",
"S.	c #4C4C4C",
"T.	c #575757",
"U.	c #878787",
"V.	c #636363",
"W.	c #616161",
"X.	c #6E6E6E",
"Y.	c #929292",
"Z.	c #707070",
"`.	c #CECECE",
" +	c #909090",
".+	c #7A7A74",
"++	c #A5A893",
"@+	c #536C4F",
"#+	c #67A154",
"$+	c #508446",
"%+	c #4D7C43",
"&+	c #2A4F2A",
"*+	c #152F16",
"=+	c #305C31",
"-+	c #46773F",
";+	c #4B7D45",
">+	c #5E9250",
",+	c #9DB283",
"'+	c #384338",
")+	c #BEBFAF",
"!+	c #4D4D4D",
"~+	c #555555",
"{+	c #9C9C9C",
"]+	c #5A5A5A",
"^+	c #5F5F5F",
"/+	c #444444",
"(+	c #B0B09D",
"_+	c #3A583C",
":+	c #608854",
"<+	c #58884C",
"[+	c #5F9350",
"}+	c #43703D",
"|+	c #315C31",
"1+	c #172F19",
"2+	c #102812",
"3+	c #19381B",
"4+	c #2B532C",
"5+	c #43733E",
"6+	c #598D4C",
"7+	c #5F944F",
"8+	c #4E8044",
"9+	c #BDBFA5",
"0+	c #3B3B3B",
"a+	c #9F9F9F",
"b+	c #585858",
"c+	c #A5A5A5",
"d+	c #C7C7B4",
"e+	c #474747",
"f+	c #7A8E70",
"g+	c #426F3D",
"h+	c #699458",
"i+	c #518048",
"j+	c #356235",
"k+	c #2E562E",
"l+	c #172E19",
"m+	c #132714",
"n+	c #0F2811",
"o+	c #153116",
"p+	c #254A25",
"q+	c #2E582F",
"r+	c #3E6D38",
"s+	c #528347",
"t+	c #689D55",
"u+	c #406C3C",
"v+	c #A2A58C",
"w+	c #52524E",
"x+	c #8A8B7D",
"y+	c #5D5D5D",
"z+	c #565656",
"A+	c #505050",
"B+	c #BFC0A7",
"C+	c #424242",
"D+	c #95A488",
"E+	c #385E39",
"F+	c #4F7E45",
"G+	c #5F8D4E",
"H+	c #3E6939",
"I+	c #2E562F",
"J+	c #264826",
"K+	c #142915",
"L+	c #122713",
"M+	c #1C3D1E",
"N+	c #305A30",
"O+	c #3B6A39",
"P+	c #5C8F4F",
"Q+	c #4B7C43",
"R+	c #A1B784",
"S+	c #3E403C",
"T+	c #C3C4AB",
"U+	c #404040",
"V+	c #B0B199",
"W+	c #385D38",
"X+	c #416D3C",
"Y+	c #5C854E",
"Z+	c #58884A",
"`+	c #366336",
" @	c #2F5830",
".@	c #1E3B20",
"+@	c #122714",
"@@	c #112912",
"#@	c #2A502A",
"$@	c #3C6836",
"%@	c #518345",
"&@	c #69945A",
"*@	c #528545",
"=@	c #ADB298",
"-@	c #4A4A48",
";@	c #AAAB96",
">@	c #373737",
",@	c #B0B29B",
"'@	c #4E6449",
")@	c #325A32",
"!@	c #62944F",
"~@	c #46733F",
"{@	c #2D552E",
"]@	c #284C29",
"^@	c #142B15",
"/@	c #102712",
"(@	c #112913",
"_@	c #224523",
":@	c #487A3F",
"<@	c #538649",
"[@	c #739C5F",
"}@	c #698C5A",
"|@	c #939783",
"1@	c #333333",
"2@	c #909381",
"3@	c #496645",
"4@	c #4D7A41",
"5@	c #59884A",
"6@	c #345F34",
"7@	c #214122",
"8@	c #132914",
"9@	c #19371B",
"0@	c #2C542D",
"a@	c #346234",
"b@	c #649952",
"c@	c #4E7E45",
"d@	c #527E46",
"e@	c #2D502E",
"f@	c #2E502F",
"g@	c #456F3C",
"h@	c #649450",
"i@	c #4D7B42",
"j@	c #173219",
"k@	c #102811",
"l@	c #274D28",
"m@	c #335F33",
"n@	c #4D7E44",
"o@	c #5C8B4B",
"p@	c #659750",
"q@	c #527F45",
"r@	c #59864B",
"s@	c #3C6538",
"t@	c #315B32",
"u@	c #264927",
"v@	c #112613",
"w@	c #102612",
"x@	c #0F2611",
"y@	c #1A371C",
"z@	c #2D562E",
"A@	c #2E572F",
"B@	c #4F7845",
"C@	c #466F3F",
"D@	c #2C512C",
"E@	c #2E552E",
"F@	c #19331B",
"G@	c #162C18",
"H@	c #1D381E",
"I@	c #2F5630",
"J@	c #294B2A",
"K@	c #244424",
"L@	c #142A16",
"M@	c #122613",
"N@	c #122712",
"O@	c #112612",
"P@	c #0F2711",
"                                                                ",
"                                                                ",
"                                                                ",
"                                                                ",
"                              . +                               ",
"                          @ # $ % & *                           ",
"                        = - ; > , ' ) !                         ",
"                    ~ { ] ^ / ( _ : < [ } |                     ",
"                  1 2 3 4 5 6 7 8 9 0 a b c d                   ",
"              e f g h i j k l m 5 n o p q r s t u               ",
"            v w x y j z A B C D E F G H 9 I J K L M             ",
"        N O P Q q R S T U V W X Y Z ` m  ...+.I @.#.$.%.        ",
"      &.*.=.-.;., >.,.Z '.).!.R ~.{.D 6 ].5 ^./...H (._.:.      ",
"  <.[.}.|.1.2.3.C ;.0 9 4.5.p 6.( 7.~.7.8.3.9.0.a.8.,.b.c.d.e.  ",
"  f.g.h.i.i 8.j.G ^.C k.l.m.n.,.p 6.>.o.p p.k./.7.4.q.r.s.t.u.  ",
"  v.w.x.y.z.A.B.5.l.o F ` F G C.6 p ~.q q D.E.F.m G.H.I.J.K.L.  ",
"  M.N.O.P.Q.R.S.T.p U./ V.W./ X.Y.q 0.Z.` `. +.+J ++@+#+$+%+&+D ",
"  *+=+-+;+>+,+'+)+!+~+{+F.]+@.0.^+^+n 5...J /+(+_+:+<+[+}+|+1+D ",
"  2+3+4+5+6+7+8+9+0+/+W.a+V.b+b+b+E c+b+T.d+e+f+g+h+i+j+k+l+m+D ",
"    n+o+p+q+r+s+t+u+v+w+x+y+C.~.3.z+A+B+C+D+E+F+G+H+I+J+K+L+D   ",
"      n+n+M+N+O+P+Q+R+S+T+U+^.'.C.!+U+V+W+X+Y+Z+`+ @.@+@L+D     ",
"          n+@@#@$@%@&@*@=@-@;@0+>@,@'@)@X+!@~@{@]@^@/@D         ",
"            n+(@_@|+:@<@[@}@|@1@1@2@3@4@5@6@M.7@8@/@D           ",
"                n+9@0@a@b@c@d@e@f@g@h@i@I+{@j@/@D               ",
"                  k@2+l@m@n@o@p@q@r@s@t@u@v@w@D                 ",
"                      x@y@z@A@B@C@D@E@F@v@D                     ",
"                        w@G@H@I@J@K@L@M@D                       ",
"                            N@O@w@x@D                           ",
"                              P@P@                              ",
"                                                                ",
"                                                                ",
"                                                                "};
