/* XPM */
static char * icon_file_www_32x32_xpm[] = {
"32 32 381 2",
"  	c None",
". 	c #636363",
"+ 	c #605F5F",
"@ 	c #616060",
"# 	c #636261",
"$ 	c #575756",
"% 	c #5C5C5C",
"& 	c #565656",
"* 	c #646362",
"= 	c #545454",
"- 	c #5D5C5C",
"; 	c #626161",
"> 	c #6D6C6B",
", 	c #CAC8C6",
"' 	c #D1CFCD",
") 	c #D2D0CE",
"! 	c #D7D4D2",
"~ 	c #DBD9D8",
"{ 	c #DAD8D5",
"] 	c #D8D7D4",
"^ 	c #CECCCB",
"/ 	c #D3D1D0",
"( 	c #D4D2D2",
"_ 	c #858380",
": 	c #D0D0D0",
"< 	c #747474",
"[ 	c #737271",
"} 	c #626160",
"| 	c #D7D6D4",
"1 	c #D9D7D6",
"2 	c #DEDDDB",
"3 	c #E1E0DF",
"4 	c #E4E2E1",
"5 	c #E1DFDF",
"6 	c #DAD9D8",
"7 	c #D9D8D8",
"8 	c #DCDBDA",
"9 	c #D1CECD",
"0 	c #878582",
"a 	c #F7F6F5",
"b 	c #D6D5D5",
"c 	c #787776",
"d 	c #6A6967",
"e 	c #D8D6D4",
"f 	c #E3E2E0",
"g 	c #E3E2E1",
"h 	c #E4E2E0",
"i 	c #E5E4E3",
"j 	c #E5E4E4",
"k 	c #E5E4E2",
"l 	c #DEDDDC",
"m 	c #DCDADA",
"n 	c #D6D3D1",
"o 	c #999692",
"p 	c #FCFCFC",
"q 	c #EFEFEF",
"r 	c #C8C6C4",
"s 	c #B9B6B6",
"t 	c #686866",
"u 	c #696867",
"v 	c #D7D5D5",
"w 	c #E4E3E2",
"x 	c #E2E0E0",
"y 	c #DEDCDB",
"z 	c #DDDCDC",
"A 	c #DEDBDA",
"B 	c #D4D3D0",
"C 	c #918E8C",
"D 	c #F5F4F3",
"E 	c #C9C6C5",
"F 	c #C2C2C0",
"G 	c #6B6A69",
"H 	c #DCDAD9",
"I 	c #E0DFDE",
"J 	c #E5E3E3",
"K 	c #E1E0DE",
"L 	c #D4D1D1",
"M 	c #B2B1B1",
"N 	c #9499A8",
"O 	c #B8B4E0",
"P 	c #BCAEE7",
"Q 	c #B0A7E0",
"R 	c #86859A",
"S 	c #A4A2A2",
"T 	c #D4D2D1",
"U 	c #D0CFCD",
"V 	c #C1BFBF",
"W 	c #6A6A6A",
"X 	c #646262",
"Y 	c #DFDDDC",
"Z 	c #E4E2E2",
"` 	c #9D9EA1",
" .	c #9DA2AB",
"..	c #C2CEE6",
"+.	c #D7DFF5",
"@.	c #E1DDF9",
"#.	c #DEDAF8",
"$.	c #E3E8F9",
"%.	c #E4EEF8",
"&.	c #D4E1ED",
"*.	c #747A84",
"=.	c #50525A",
"-.	c #666666",
";.	c #616160",
">.	c #575757",
",.	c #494949",
"'.	c #595958",
").	c #DFDDDD",
"!.	c #999B9F",
"~.	c #8A9BBA",
"{.	c #D1E1F6",
"].	c #E6F0FA",
"^.	c #E2EBFB",
"/.	c #D6DDFB",
"(.	c #D7DFFA",
"_.	c #CCD8FB",
":.	c #C6D4FA",
"<.	c #C8D6FA",
"[.	c #C6D8F8",
"}.	c #8598C0",
"|.	c #6B6D73",
"1.	c #989695",
"2.	c #ABA9A8",
"3.	c #484848",
"4.	c #5F5E5E",
"5.	c #E0DEDD",
"6.	c #D5D3D3",
"7.	c #8A94AB",
"8.	c #B4CBF3",
"9.	c #DCEDFD",
"0.	c #D7E9FC",
"a.	c #C5DDFB",
"b.	c #BCD4FA",
"c.	c #D0DFF8",
"d.	c #D9E6F9",
"e.	c #BDCDFA",
"f.	c #B0C2F9",
"g.	c #BCD3F8",
"h.	c #BFDEF6",
"i.	c #8B9AA3",
"j.	c #BDBBB9",
"k.	c #C7C5C4",
"l.	c #525252",
"m.	c #E0DFDF",
"n.	c #DFDEDD",
"o.	c #B0B1B4",
"p.	c #89AAE4",
"q.	c #BBDDFB",
"r.	c #C3E5FE",
"s.	c #B3E0FC",
"t.	c #9FDBFB",
"u.	c #CDE8F7",
"v.	c #EFF8F5",
"w.	c #F2FAF6",
"x.	c #EFFAF7",
"y.	c #EBF8F7",
"z.	c #D6EBF7",
"A.	c #C0E2F5",
"B.	c #A2CDEB",
"C.	c #A5A6A7",
"D.	c #686767",
"E.	c #E3E1E0",
"F.	c #E0DEDE",
"G.	c #5B77A5",
"H.	c #90C0F4",
"I.	c #A3DDFD",
"J.	c #9CDFFE",
"K.	c #8DDEFC",
"L.	c #84DDFB",
"M.	c #DEF3F4",
"N.	c #F3FAF4",
"O.	c #F3FBF4",
"P.	c #EEF9F5",
"Q.	c #E9F8F6",
"R.	c #E2F5F6",
"S.	c #BCE1F4",
"T.	c #88BCF2",
"U.	c #5B77AC",
"V.	c #D2D1CF",
"W.	c #5C5B5B",
"X.	c #6C6B6B",
"Y.	c #E1DFDE",
"Z.	c #E2E1E0",
"`.	c #539ADD",
" +	c #8BD2F9",
".+	c #83D7FC",
"++	c #74D9FE",
"@+	c #63DCFC",
"#+	c #52DAFB",
"$+	c #8CE4F7",
"%+	c #BBEDF5",
"&+	c #B7EBF6",
"*+	c #DDF5F4",
"=+	c #EBF8F4",
"-+	c #E2F6F4",
";+	c #B7E6F3",
">+	c #56A9F4",
",+	c #1F6EE6",
"'+	c #D9D7D5",
")+	c #656464",
"!+	c #E5E3E2",
"~+	c #E4E2DF",
"{+	c #50AEE8",
"]+	c #94E0F6",
"^+	c #88DBF9",
"/+	c #57D3FC",
"(+	c #3BD5FC",
"_+	c #31D6FB",
":+	c #32D7FB",
"<+	c #38D6FA",
"[+	c #33D1FC",
"}+	c #94E4F6",
"|+	c #E5F7F2",
"1+	c #D6F2F2",
"2+	c #8DD9F3",
"3+	c #29A3F7",
"4+	c #0276ED",
"5+	c #717070",
"6+	c #5E5E5E",
"7+	c #DBD8D8",
"8+	c #3BA7E1",
"9+	c #89DFF5",
"0+	c #A7E5F4",
"a+	c #7CDEF7",
"b+	c #25D5FC",
"c+	c #22D9FB",
"d+	c #1EDAFB",
"e+	c #19D9FB",
"f+	c #15D5FD",
"g+	c #4EDBFA",
"h+	c #CAF2F2",
"i+	c #C7EFF0",
"j+	c #76D4F3",
"k+	c #0FA4F8",
"l+	c #0081E8",
"m+	c #838382",
"n+	c #6F6E6D",
"o+	c #D0CFCF",
"p+	c #4283A7",
"q+	c #67D1F1",
"r+	c #94E1F3",
"s+	c #6FE0F6",
"t+	c #18D9FC",
"u+	c #17DFFB",
"v+	c #19E2FB",
"w+	c #1BE3FB",
"x+	c #1BE1FD",
"y+	c #42E1FB",
"z+	c #BAF0F2",
"A+	c #C1EEF1",
"B+	c #60D5F4",
"C+	c #10B0F3",
"D+	c #2B7BAD",
"E+	c #E9E9E8",
"F+	c #C4C3C2",
"G+	c #686666",
"H+	c #737171",
"I+	c #9D9B9B",
"J+	c #E3E1DF",
"K+	c #B2B8BB",
"L+	c #3EB9E5",
"M+	c #6CD9F5",
"N+	c #39DBFA",
"O+	c #14DFFC",
"P+	c #1DE6FB",
"Q+	c #29EAFB",
"R+	c #30EAFB",
"S+	c #32E9FD",
"T+	c #4BE8FC",
"U+	c #A6EDF3",
"V+	c #96E6F4",
"W+	c #25CDF8",
"X+	c #07A8E4",
"Y+	c #B0B9BB",
"Z+	c #EAE8E8",
"`+	c #EEEDEC",
" @	c #767474",
".@	c #E2E0DE",
"+@	c #D8D8D7",
"@@	c #649DB1",
"#@	c #3CCCF3",
"$@	c #1ADBFC",
"%@	c #1FE5FC",
"&@	c #40EDFB",
"*@	c #48EEFB",
"=@	c #4BEEFD",
"-@	c #52ECFD",
";@	c #76EAF7",
">@	c #52E3FA",
",@	c #19CBF2",
"'@	c #5B9AAD",
")@	c #ECEBEA",
"!@	c #EFEEED",
"~@	c #7A7A79",
"{@	c #E3E3E1",
"]@	c #EAE8E7",
"^@	c #939FA5",
"/@	c #1B98BF",
"(@	c #17D9F7",
"_@	c #30E8FA",
":@	c #45EEFB",
"<@	c #59F0FB",
"[@	c #65F2FB",
"}@	c #6AF3FD",
"|@	c #67F2FE",
"1@	c #5EEDFC",
"2@	c #44DEF3",
"3@	c #229FB9",
"4@	c #96A5A9",
"5@	c #ECEBEB",
"6@	c #838282",
"7@	c #7F7F7F",
"8@	c #686766",
"9@	c #E9E8E6",
"0@	c #94A1A7",
"a@	c #62A6B1",
"b@	c #34D5E9",
"c@	c #4EE6F7",
"d@	c #62EBF9",
"e@	c #71EDF9",
"f@	c #79EFFA",
"g@	c #72EBF7",
"h@	c #5CD7E5",
"i@	c #75A9AF",
"j@	c #99A7AB",
"k@	c #F6F6F6",
"l@	c #F2F1F1",
"m@	c #F1F0F0",
"n@	c #F3F2F1",
"o@	c #D2D1D0",
"p@	c #646363",
"q@	c #F0EFEE",
"r@	c #F0EEEE",
"s@	c #F2F0F0",
"t@	c #E2E2E1",
"u@	c #B9C0C2",
"v@	c #4396B4",
"w@	c #2AACE0",
"x@	c #33ADE3",
"y@	c #33AADC",
"z@	c #5099B4",
"A@	c #BEC5C6",
"B@	c #E6E6E6",
"C@	c #F3F3F3",
"D@	c #F3F2F2",
"E@	c #F5F5F5",
"F@	c #F6F5F5",
"G@	c #F4F3F3",
"H@	c #626262",
"I@	c #6D6C6C",
"J@	c #EFEEEE",
"K@	c #F4F4F3",
"L@	c #F4F3F2",
"M@	c #F5F3F2",
"N@	c #F8F7F6",
"O@	c #FAF9F9",
"P@	c #F9F9F9",
"Q@	c #FAFAFA",
"R@	c #FBFAFA",
"S@	c #FBFBFB",
"T@	c #F8F8F8",
"U@	c #7B7A7A",
"V@	c #7D7D7D",
"W@	c #636262",
"X@	c #F6F6F5",
"Y@	c #FCFBFB",
"Z@	c #FDFDFD",
"`@	c #9C9C9C",
" #	c #5B5B5B",
".#	c #FBFBFA",
"+#	c #EDEDEC",
"@#	c #EAEAEA",
"##	c #949393",
"$#	c #727171",
"%#	c #6F6E6E",
"&#	c #666565",
"*#	c #646464",
"=#	c #5D5D5D",
"-#	c #706F6F",
";#	c #727272",
">#	c #6E6D6D",
"                                                                ",
"                                                                ",
"                                                                ",
"                                                                ",
"          . + @ # $ % & * = + @ - ; >                           ",
"          ; , ' ) ! ~ { ] ^ / ( , _ : < [                       ",
"          } / | 1 2 3 4 5 6 7 8 9 0 a b , c                     ",
"          d e f g h i j k l m 2 n o p q r s t                   ",
"          u v w i x 4 f 5 y z A B C 2 D 3 E F .                 ",
"          G H I J w K L M N O P Q R S T w U V W                 ",
"          X Y 5 5 Z `  ...+.@.#.$.%.&.*.=.-.;.>.,.              ",
"          '.Y ).5 !.~.{.].^./.(._.:.<.[.}.|.1.2.3.              ",
"          4.5.).6.7.8.9.0.a.b.c.d.e.f.g.h.i.j.k.l.              ",
"          * m.n.o.p.q.r.s.t.u.v.w.x.y.z.A.B.C., =               ",
"          D.E.F.G.H.I.J.K.L.M.N.O.P.Q.R.S.T.U.V.W.              ",
"          X.Y.Z.`. +.+++@+#+$+%+&+*+=+-+;+>+,+'+)+              ",
"          -.!+~+{+]+^+/+(+_+:+<+[+}+|+1+2+3+4+Y.5+              ",
"          6+7+i 8+9+0+a+b+c+d+e+f+g+h+i+j+k+l+E.m+              ",
"          n+o+E.p+q+r+s+t+u+v+w+x+y+z+A+B+C+D+E+F+G+            ",
"          H+I+J+K+L+M+N+O+P+Q+R+S+T+U+V+W+X+Y+Z+`+X.            ",
"             @.@+@@@#@$@%@R+&@*@=@-@;@>@,@'@Y )@!@~@            ",
"            X.{@]@^@/@(@_@:@<@[@}@|@1@2@3@4@5@5@!@6@7@7@7@7@7@7@",
"            8@9@5@)@0@a@b@c@d@e@f@g@h@i@j@k@l@m@n@o@6+7@7@7@7@  ",
"            p@)@q@r@s@t@u@v@w@x@y@z@A@B@k@C@D@E@F@G@H@7@7@7@    ",
"            I@J@K@G@L@M@F@N@O@O@P@P@Q@R@Q@Q@S@Q@p T@U@V@7@      ",
"            W@X@Q@P@P@P@R@Q@S@Y@p Y@p p p p S@p Z@Z@`@V@        ",
"             #P@P@O@p p p p .#.#+#@#B@##$#%#&#*#W@+ =#          ",
"            >.@ D.-#5+;#$#>#>#>#-.@ +                           ",
"                                                                ",
"                                                                ",
"                                                                ",
"                                                                "};
