/* XPM */
static char * icon_folder_parent_20x20_xpm[] = {
"20 20 125 2",
"  	c None",
". 	c #85752A",
"+ 	c #88782B",
"@ 	c #87772A",
"# 	c #80722F",
"$ 	c #DBCF94",
"% 	c #D5C57C",
"& 	c #D1C071",
"* 	c #D8CA87",
"= 	c #837533",
"- 	c #DDD199",
"; 	c #D3C378",
"> 	c #4F6C9D",
", 	c #D4C479",
"' 	c #D6C781",
") 	c #807230",
"! 	c #746624",
"~ 	c #736523",
"{ 	c #736623",
"] 	c #6D6121",
"^ 	c #8A792B",
"/ 	c #F4F0DD",
"( 	c #E9E1BB",
"_ 	c #54709F",
": 	c #9BB4E6",
"< 	c #475C7B",
"[ 	c #EBE5C3",
"} 	c #EBE5C5",
"| 	c #E6DDB2",
"1 	c #E9E1BC",
"2 	c #E5DCB1",
"3 	c #E7E0B8",
"4 	c #E4DBAE",
"5 	c #D6C780",
"6 	c #E5DCB5",
"7 	c #5375B0",
"8 	c #8AAAE2",
"9 	c #78A0E1",
"0 	c #4D72B5",
"a 	c #3F577A",
"b 	c #D7C984",
"c 	c #D5C67E",
"d 	c #D1C172",
"e 	c #D8CA86",
"f 	c #D9CB8A",
"g 	c #D8C983",
"h 	c #CEBC69",
"i 	c #726523",
"j 	c #5D76A3",
"k 	c #87A4DA",
"l 	c #80A4E0",
"m 	c #759DDC",
"n 	c #4E75B9",
"o 	c #3E64A7",
"p 	c #34475D",
"q 	c #D2C375",
"r 	c #D1C070",
"s 	c #D0BF6D",
"t 	c #CEBC66",
"u 	c #726423",
"v 	c #40567D",
"w 	c #3D547E",
"x 	c #3B5179",
"y 	c #7092D1",
"z 	c #344B76",
"A 	c #3F567D",
"B 	c #3A537C",
"C 	c #D3C478",
"D 	c #D3C377",
"E 	c #D2C173",
"F 	c #DFD49D",
"G 	c #D2C273",
"H 	c #4B6590",
"I 	c #7292CE",
"J 	c #314A76",
"K 	c #D3C37A",
"L 	c #D1C073",
"M 	c #D0C06E",
"N 	c #D1C06E",
"O 	c #D1C06F",
"P 	c #D6C67D",
"Q 	c #CAB861",
"R 	c #DACD8F",
"S 	c #D3C479",
"T 	c #526B94",
"U 	c #6787C6",
"V 	c #405D8E",
"W 	c #53667C",
"X 	c #5C6D80",
"Y 	c #5E7087",
"Z 	c #5C6D82",
"` 	c #617488",
" .	c #68757D",
"..	c #D0BF6C",
"+.	c #6C5F21",
"@.	c #DFD39B",
"#.	c #D4C47A",
"$.	c #4F6689",
"%.	c #5778BA",
"&.	c #5B7CBF",
"*.	c #5A79B7",
"=.	c #5674B0",
"-.	c #516DA8",
";.	c #4D679F",
">.	c #4B545E",
",.	c #DCD093",
"'.	c #617386",
").	c #3A5179",
"!.	c #385077",
"~.	c #374E78",
"{.	c #334B77",
"].	c #344D77",
"^.	c #3D5784",
"/.	c #D3C376",
"(.	c #CFBD6B",
"_.	c #6F6122",
":.	c #7F7F7F",
"<.	c #CFBD69",
"[.	c #CEBD69",
"}.	c #CBB964",
"|.	c #675B1F",
"1.	c #756724",
"2.	c #6E6121",
"3.	c #716322",
"4.	c #6B5E20",
"                                        ",
"                                        ",
"                                        ",
"        . + @ .                         ",
"      # $ % & * =                       ",
"    @ - * ; > , ' ) ! ~ ~ { { ~ ]       ",
"    ^ / ( _ : < [ } | 1 2 3 4 5 !       ",
"    ^ 6 7 8 9 0 a b c d e f g h i       ",
"    ^ j k l m n o p q q r % s t u       ",
"    ^ v w x y z A B C d , D E t u       ",
"    ^ F G H I J K L M N N O P Q u       ",
"    ^ R S T U V W X Y Z `  ...t +.      ",
"    ^ @.#.$.%.%.&.*.=.-.;.>.G t u       ",
"    ^ ,.#.'.).!.~.{.].{.{.^./.(._.:.:.:.",
"    ^ d <.[.[.t t t t t t t t }._.:.:.  ",
"    |.1.2.2.2.3.3.3.3.3.3.3.3.2.4.:.    ",
"                                        ",
"                                        ",
"                                        ",
"                                        "};
