/* XPM */
static char * icon_link_hidden_20x20_xpm[] = {
"20 20 59 1",
" 	c None",
".	c #1D1D1D",
"+	c #474747",
"@	c #676767",
"#	c #5C5C5C",
"$	c #242424",
"%	c #454545",
"&	c #5E5E5E",
"*	c #232323",
"=	c #2C2C2C",
"-	c #1B1B1B",
";	c #464646",
">	c #626262",
",	c #5F5F5F",
"'	c #272727",
")	c #1F1F1F",
"!	c #202020",
"~	c #666666",
"{	c #222222",
"]	c #282828",
"^	c #363636",
"/	c #6C6C6C",
"(	c #575757",
"_	c #6F6F6F",
":	c #646464",
"<	c #696969",
"[	c #303030",
"}	c #7C7C7C",
"|	c #3F3F3F",
"1	c #494949",
"2	c #2B2B2B",
"3	c #727272",
"4	c #484848",
"5	c #4D4D4D",
"6	c #3B3B3B",
"7	c #191919",
"8	c #2F2F2F",
"9	c #585858",
"0	c #656565",
"a	c #262626",
"b	c #4F4F4F",
"c	c #171717",
"d	c #333333",
"e	c #515151",
"f	c #4E4E4E",
"g	c #707070",
"h	c #545454",
"i	c #6A6A6A",
"j	c #616161",
"k	c #686868",
"l	c #6D6D6D",
"m	c #606060",
"n	c #3C3C3C",
"o	c #404040",
"p	c #3E3E3E",
"q	c #5A5A5A",
"r	c #323232",
"s	c #3A3A3A",
"t	c #565656",
"                    ",
"  .+@#$             ",
"   .%@&*            ",
" =  -;>,$           ",
" @' )!+@&*          ",
" ;~{]^-;/,'         ",
" {+'(_!.:<['        ",
"  !'(}*|#123'       ",
"   -|_<24)5262      ",
"   789_0* ab33a     ",
"    cde/@$f&,0g2    ",
"     -8hi>2h-%jk'   ",
" |    -[5<k'=)|&0'  ",
" |||   )8b~glm.n,~' ",
" |||||  -*oe([*-n&k ",
" ||||||  ).*a2- -pq ",
"    |||||  )r+$  -s ",
"       |||||)p<r  7 ",
"        p||||!t@8   ",
"                    "};
