/* XPM */
static char * icon_folder_opened_32x32_xpm[] = {
"32 32 157 2",
"  	c None",
". 	c #756726",
"+ 	c #8E7C2E",
"@ 	c #8D7C2C",
"# 	c #8B7B2C",
"$ 	c #88782B",
"% 	c #7B6C26",
"& 	c #8B7B33",
"* 	c #D1C071",
"= 	c #D3C376",
"- 	c #D0BE69",
"; 	c #CEBC67",
"> 	c #CDBA61",
", 	c #CDBA62",
"' 	c #C0AB4D",
") 	c #817231",
"! 	c #988941",
"~ 	c #CFBD69",
"{ 	c #D4C47C",
"] 	c #D1C172",
"^ 	c #D1C070",
"/ 	c #D2C275",
"( 	c #D0BF6F",
"_ 	c #CBB961",
": 	c #C2AE53",
"< 	c #796C2B",
"[ 	c #8D7D32",
"} 	c #CEBD6C",
"| 	c #CFBE6C",
"1 	c #CFBF6D",
"2 	c #D1C072",
"3 	c #CEBE6E",
"4 	c #CCBA64",
"5 	c #C6B256",
"6 	c #81722D",
"7 	c #776928",
"8 	c #6E6124",
"9 	c #6D6024",
"0 	c #6B5E23",
"a 	c #6A5D22",
"b 	c #998630",
"c 	c #CFBD6A",
"d 	c #CEBC66",
"e 	c #CEBC65",
"f 	c #CEBC68",
"g 	c #CDBA60",
"h 	c #CCB95F",
"i 	c #CEBB63",
"j 	c #CBB75A",
"k 	c #CCB85D",
"l 	c #C6B04B",
"m 	c #695C22",
"n 	c #96842F",
"o 	c #D0BE6B",
"p 	c #D0BE6A",
"q 	c #CFBD68",
"r 	c #CAB659",
"s 	c #CFBC66",
"t 	c #C9B556",
"u 	c #C4AD43",
"v 	c #998730",
"w 	c #D1C06E",
"x 	c #D1BF6C",
"y 	c #C8B453",
"z 	c #C5AE46",
"A 	c #C7B24E",
"B 	c #C9B454",
"C 	c #C8B351",
"D 	c #C7B250",
"E 	c #C6B049",
"F 	c #62561F",
"G 	c #594E1C",
"H 	c #5E521D",
"I 	c #736524",
"J 	c #7E6F27",
"K 	c #85752A",
"L 	c #92802D",
"M 	c #817128",
"N 	c #87772A",
"O 	c #827329",
"P 	c #7C6D27",
"Q 	c #847429",
"R 	c #95832E",
"S 	c #C7B14C",
"T 	c #CBB85C",
"U 	c #64581F",
"V 	c #D2C171",
"W 	c #D7C882",
"X 	c #DDCF92",
"Y 	c #D7C880",
"Z 	c #D5C67C",
"` 	c #D8C983",
" .	c #D4C477",
"..	c #D6C67D",
"+.	c #D2C06F",
"@.	c #B29C37",
"#.	c #524819",
"$.	c #BCA53B",
"%.	c #6A5D23",
"&.	c #DED299",
"*.	c #DFD39A",
"=.	c #E8DFB5",
"-.	c #E9E1BA",
";.	c #E3D9A8",
">.	c #E1D6A2",
",.	c #DDD196",
"'.	c #DFD39C",
").	c #E1D5A0",
"!.	c #E2D7A5",
"~.	c #DED197",
"{.	c #DCCF91",
"].	c #DDD094",
"^.	c #DBCD8E",
"/.	c #D3C274",
"(.	c #A18D32",
"_.	c #C2AA3D",
":.	c #BEA73B",
"<.	c #B8A139",
"[.	c #AA9535",
"}.	c #9F8C32",
"|.	c #DCCE8F",
"1.	c #DACB89",
"2.	c #D9CA86",
"3.	c #DACC8B",
"4.	c #D5C57A",
"5.	c #D4C479",
"6.	c #C1A93C",
"7.	c #B9A33A",
"8.	c #D6C77F",
"9.	c #D9CB88",
"0.	c #B59F38",
"a.	c #A89435",
"b.	c #695D23",
"c.	c #DBCD8C",
"d.	c #D8C985",
"e.	c #4A4117",
"f.	c #A79334",
"g.	c #D2C273",
"h.	c #98852F",
"i.	c #A49033",
"j.	c #443C15",
"k.	c #C2AB3F",
"l.	c #584D1B",
"m.	c #9C8931",
"n.	c #53491A",
"o.	c #675A20",
"p.	c #4D4317",
"q.	c #7F7F7F",
"r.	c #C5AF48",
"s.	c #C4AE45",
"t.	c #3E3613",
"u.	c #413914",
"v.	c #352E10",
"w.	c #685C21",
"x.	c #6F6122",
"y.	c #6A5D21",
"z.	c #554A1A",
"                                                                ",
"                                                                ",
"                                                                ",
"                                                                ",
"                                                                ",
"                . + @ # # $ %                                   ",
"              & * = - ; > , ' )                                 ",
"            ! ~ { ] ^ / * ( _ : <                               ",
"          [ ~ } ; ~ | ( 1 2 3 4 5 6 7 7 7 7 8 8 8 9 9 0 a       ",
"          b c d e e e f e ; , > g h h h g e i j g i k l m       ",
"          n - o e e e p ; c e q e k r g g r k j s g t u 9       ",
"          v q w x - s i , , g h i , , , , g r y i e , z 0       ",
"          @ k A y y B y y B C B y y C D D C E B j r j l 0       ",
"    F G H I J K v L # J M N O J # M P $ # Q R S k y T D 0       ",
"  U o V W X Y Z ` = x x = Y V o o  ...+.w x @.#.u $.z y %.      ",
"  F &.*.=.-.;.>.>.*.,.'.).!.~.X {.'.>.].{.^./.(._.:.<.[.%.      ",
"    }.|.1.W 1.1.Y 2.3.^.3.` ` 2.{.W 4.1.2.5.w o F 6.7.[.%.      ",
"    I 8.X ,.,.^.2.2.9.|.9.4...W 3... .W .././.+.N 0.0.a.b.      ",
"    H - X ).X c.1.` Y d.8.= 5.Z W 4. .4. .+.V V k e.@.f.m       ",
"      H Y X ).,.` W Y = = 5.= /.5. ./.g./.= g.w +.h.a.i.#.      ",
"      j.w |.].c.` Y ..4.5././././.=  ./. .4./.= - k.l.m.n.      ",
"        o.Y 4.Z d.Z 5.2...x g.g.w = 5.5.4...= 5.5.s N @ #.      ",
"        p.C s q x - - o q , i i i i i i i e i g j B B U j.q.q.q.",
"          l.z E C C C C D S S S S S S S S S S l r.s.r.t.u.q.q.  ",
"          v.G U U U U U w.x.x.x.x.x.x.x.x.x.x.x.x.y.w.n.z.q.    ",
"                                                                ",
"                                                                ",
"                                                                ",
"                                                                ",
"                                                                ",
"                                                                ",
"                                                                "};
