/* XPM */
static char * icon_folder_opened_20x20_xpm[] = {
"20 20 134 2",
"  	c None",
". 	c #85752A",
"+ 	c #88782B",
"@ 	c #87772A",
"# 	c #80722F",
"$ 	c #DBCF94",
"% 	c #D5C57C",
"& 	c #D2C277",
"* 	c #D8CA87",
"= 	c #837533",
"- 	c #DCD096",
"; 	c #D6C883",
"> 	c #D4C57C",
", 	c #D6C782",
"' 	c #D4C479",
") 	c #D6C781",
"! 	c #807230",
"~ 	c #746624",
"{ 	c #736523",
"] 	c #736623",
"^ 	c #6D6121",
"/ 	c #8B7B2C",
"( 	c #D4C47C",
"_ 	c #D2C276",
": 	c #D1C174",
"< 	c #D0BF70",
"[ 	c #D2C174",
"} 	c #D1C070",
"| 	c #D0C072",
"1 	c #CFBE6F",
"2 	c #CFBE6E",
"3 	c #7B6C26",
"4 	c #D6C780",
"5 	c #D3C379",
"6 	c #D2C377",
"7 	c #D1C072",
"8 	c #D3C278",
"9 	c #D1C073",
"0 	c #D0BF71",
"a 	c #D0C071",
"b 	c #D2C37B",
"c 	c #D1C176",
"d 	c #756624",
"e 	c #5E521C",
"f 	c #716322",
"g 	c #756724",
"h 	c #7B6C25",
"i 	c #6F6121",
"j 	c #706322",
"k 	c #766824",
"l 	c #766724",
"m 	c #9C8931",
"n 	c #CBBA65",
"o 	c #CFBF72",
"p 	c #64581F",
"q 	c #DACC8E",
"r 	c #D8C98A",
"s 	c #D2C177",
"t 	c #D2C175",
"u 	c #CFBE6D",
"v 	c #D0BE6F",
"w 	c #D2C074",
"x 	c #CFBC6B",
"y 	c #CEBC69",
"z 	c #CDBB66",
"A 	c #5E531D",
"B 	c #C5AF48",
"C 	c #C5B259",
"D 	c #6C5E21",
"E 	c #574D1A",
"F 	c #CBB760",
"G 	c #CBB964",
"H 	c #CBB761",
"I 	c #CBB864",
"J 	c #CCBA65",
"K 	c #CBB861",
"L 	c #CBB863",
"M 	c #CEBD6B",
"N 	c #CFBD6B",
"O 	c #938233",
"P 	c #A38F35",
"Q 	c #B8A139",
"R 	c #9D8A32",
"S 	c #CEBB68",
"T 	c #CCB961",
"U 	c #CDBA64",
"V 	c #CDBB64",
"W 	c #CCB963",
"X 	c #CCBA63",
"Y 	c #D1BF6D",
"Z 	c #CEBC67",
"` 	c #D0BF6D",
" .	c #CEBD69",
"..	c #61551E",
"+.	c #B09B37",
"@.	c #6D6022",
"#.	c #CBB75F",
"$.	c #CBB75D",
"%.	c #CBB860",
"&.	c #C9B559",
"*.	c #CBB75E",
"=.	c #CBB85D",
"-.	c #CDBA61",
";.	c #CBB85F",
">.	c #CCB95F",
",.	c #918033",
"'.	c #9E8B31",
").	c #5B501C",
"!.	c #65581E",
"~.	c #C9B557",
"{.	c #C8B455",
"].	c #CAB65A",
"^.	c #C9B556",
"/.	c #CBB65A",
"(.	c #C8B453",
"_.	c #C9B455",
":.	c #C9B454",
"<.	c #CAB558",
"[.	c #C6B14D",
"}.	c #4E4418",
"|.	c #4C4217",
"1.	c #7F7F7F",
"2.	c #494016",
"3.	c #C2AA3D",
"4.	c #C6B04A",
"5.	c #C5AF49",
"6.	c #C4AD44",
"7.	c #C5AE47",
"8.	c #7B6C28",
"9.	c #3F3713",
"0.	c #4B4217",
"a.	c #655920",
"b.	c #6F6122",
"c.	c #383111",
"                                        ",
"                                        ",
"                                        ",
"          . + @ .                       ",
"        # $ % & * =                     ",
"      @ - ; > , ' ) ! ~ { { ] ] { ^     ",
"      / ( > & _ : < [ } | 1 | : 2 3     ",
"      + 4 5 6 7 8 9 0 < a | | b c d     ",
"    e f g h g i { j k j k l m n o d     ",
"  p q r s t u v w x y u z _ A B C D     ",
"  E 0 F G H I J K L n F M N O P Q D     ",
"    R S T U V W X z Y Z ` U  ...+...    ",
"    @.z #.$.%.&.*.=.-.;.$.>.#.,.'.).    ",
"    !.~.{.].^./.(._.:.^.^.<._.[.}.|.1.1.",
"      2.3.4.5.5.6.6.6.6.6.6.6.7.8.9.1.1.",
"      0.a.p p p b.b.b.b.b.b.b.b.2.c.1.  ",
"                                        ",
"                                        ",
"                                        ",
"                                        "};
