/* XPM */
static char * icon_ftp_32x32_xpm[] = {
"32 32 661 2",
"  	c None",
". 	c #808FA4",
"+ 	c #9BA8C8",
"@ 	c #9D93DA",
"# 	c #9181D5",
"$ 	c #B1A7E0",
"% 	c #9482DB",
"& 	c #705FB9",
"* 	c #85752A",
"= 	c #88782B",
"- 	c #87772A",
"; 	c #5A6286",
"> 	c #C0CBD9",
", 	c #DCE7F6",
"' 	c #DCDEF7",
") 	c #CCC4F3",
"! 	c #CFBFF2",
"~ 	c #D7C9F4",
"{ 	c #D6C7F6",
"] 	c #C8B9F4",
"^ 	c #80722F",
"/ 	c #DBCF94",
"( 	c #D4C47B",
"_ 	c #D1C072",
": 	c #D7C986",
"< 	c #837533",
"[ 	c #C0CBEE",
"} 	c #B3BEF0",
"| 	c #C2CCF3",
"1 	c #C5CFF4",
"2 	c #D5D9F8",
"3 	c #E0DAFA",
"4 	c #E7D6FA",
"5 	c #E4D5F9",
"6 	c #DBD0F9",
"7 	c #DDD199",
"8 	c #D2C278",
"9 	c #D4C57E",
"0 	c #D3C378",
"a 	c #D5C67F",
"b 	c #807230",
"c 	c #746624",
"d 	c #736523",
"e 	c #736623",
"f 	c #6D6121",
"g 	c #8896B5",
"h 	c #CEE1F1",
"i 	c #D4E1F7",
"j 	c #C8D5F4",
"k 	c #D4E3F8",
"l 	c #DBE8FB",
"m 	c #E3EBFD",
"n 	c #E9E9FD",
"o 	c #ECE3FD",
"p 	c #E9E1FD",
"q 	c #E0DCFC",
"r 	c #8A792B",
"s 	c #D7CA8B",
"t 	c #D1C176",
"u 	c #D4C580",
"v 	c #D5C782",
"w 	c #D6C987",
"x 	c #D6C988",
"y 	c #D5C681",
"z 	c #D6C885",
"A 	c #D6C783",
"B 	c #D5C680",
"C 	c #D4C57B",
"D 	c #A0B5D4",
"E 	c #CDE2F8",
"F 	c #CEDEF7",
"G 	c #DAEAF9",
"H 	c #E8F5FC",
"I 	c #EDF7FE",
"J 	c #ECF4FE",
"K 	c #EAEFFE",
"L 	c #E7EAFE",
"M 	c #E1E2FE",
"N 	c #D8DAFD",
"O 	c #DDE8FA",
"P 	c #D3C47C",
"Q 	c #D1C277",
"R 	c #D0C071",
"S 	c #D1C175",
"T 	c #D3C276",
"U 	c #D3C379",
"V 	c #CEBD6E",
"W 	c #D4C47C",
"X 	c #D3C277",
"Y 	c #CEBC69",
"Z 	c #726523",
"` 	c #97B8DA",
" .	c #AFC5F3",
"..	c #BACFF5",
"+.	c #D1E4FA",
"@.	c #EAF7FD",
"#.	c #F2FAFD",
"$.	c #F2F8FE",
"%.	c #EBF2FE",
"&.	c #E0E7FE",
"*.	c #D5DDFE",
"=.	c #CCD5FD",
"-.	c #DCE7FC",
";.	c #675A1E",
">.	c #716322",
",.	c #756724",
"'.	c #7B6C25",
").	c #6F6121",
"!.	c #706322",
"~.	c #766824",
"{.	c #766724",
"].	c #AF9D45",
"^.	c #CAB862",
"/.	c #726423",
"(.	c #7897BC",
"_.	c #9DB5F1",
":.	c #AAC1F4",
"<.	c #CFE2FB",
"[.	c #E5F2FE",
"}.	c #EBF5FF",
"|.	c #EAF4FE",
"1.	c #E5F0FE",
"2.	c #DAE8FE",
"3.	c #CBDAFE",
"4.	c #C0D0FE",
"5.	c #B8C9FD",
"6.	c #D1E1FB",
"7.	c #86793C",
"8.	c #D8C98A",
"9.	c #D4C480",
"0.	c #D2C175",
"a.	c #CFBE6D",
"b.	c #D0BE6F",
"c.	c #D2C074",
"d.	c #CFBC6B",
"e.	c #CDBB66",
"f.	c #C0B168",
"g.	c #807332",
"h.	c #CAB861",
"i.	c #8CA9EA",
"j.	c #9EB8F3",
"k.	c #BCD3F9",
"l.	c #DEECFE",
"m.	c #E6F2FE",
"n.	c #E2EFFF",
"o.	c #DCECFE",
"p.	c #D4E7FE",
"q.	c #CBE0FE",
"r.	c #BED6FE",
"s.	c #B4CEFE",
"t.	c #ACC8FD",
"u.	c #CFE1FA",
"v.	c #756729",
"w.	c #CBB760",
"x.	c #CBB964",
"y.	c #CBB761",
"z.	c #CBB864",
"A.	c #CCBA65",
"B.	c #CBB861",
"C.	c #CBB863",
"D.	c #CBBA65",
"E.	c #CEBD6B",
"F.	c #C4B363",
"G.	c #81712B",
"H.	c #6E6122",
"I.	c #7190E2",
"J.	c #8DABF0",
"K.	c #B0CCF8",
"L.	c #CCE3FD",
"M.	c #DDEDFF",
"N.	c #D9ECFF",
"O.	c #CFE7FF",
"P.	c #CBE6FE",
"Q.	c #C3E3FE",
"R.	c #B8DDFE",
"S.	c #A9D6FE",
"T.	c #A2D0FC",
"U.	c #C7E2F9",
"V.	c #EFF9F8",
"W.	c #5B501C",
"X.	c #B9A859",
"Y.	c #CBB75F",
"Z.	c #CBB75D",
"`.	c #CBB860",
" +	c #C9B559",
".+	c #CBB75E",
"++	c #CBB85D",
"@+	c #CDBA61",
"#+	c #CBB85F",
"$+	c #CCB95F",
"%+	c #A8974B",
"&+	c #A7953F",
"*+	c #7B6D29",
"=+	c #2D417F",
"-+	c #7E9CEE",
";+	c #96B7F4",
">+	c #B9D9FC",
",+	c #CBE8FE",
"'+	c #D1EBFF",
")+	c #C8E5FF",
"!+	c #C3E4FF",
"~+	c #BEE5FE",
"{+	c #B1E1FE",
"]+	c #A3DCFE",
"^+	c #94D6FD",
"/+	c #BBE1F9",
"(+	c #F3FAF8",
"_+	c #F5FCF7",
":+	c #F5FCF8",
"<+	c #8D803E",
"[+	c #C8B455",
"}+	c #CAB65A",
"|+	c #C9B556",
"1+	c #CBB65A",
"2+	c #C8B453",
"3+	c #C9B455",
"4+	c #C9B454",
"5+	c #CAB558",
"6+	c #70632C",
"7+	c #776827",
"8+	c #5579C8",
"9+	c #88AEF1",
"0+	c #A1C8F8",
"a+	c #B5E1FE",
"b+	c #BBE8FE",
"c+	c #B7E2FF",
"d+	c #B4E0FF",
"e+	c #B1E3FF",
"f+	c #A7E2FE",
"g+	c #94DEFE",
"h+	c #8ADBFE",
"i+	c #8EDBFD",
"j+	c #D8F1F8",
"k+	c #F5FBF6",
"l+	c #F5FBF7",
"m+	c #494016",
"n+	c #C2AA3D",
"o+	c #C6B04A",
"p+	c #C5AF49",
"q+	c #C4AD44",
"r+	c #7B6C28",
"s+	c #6F6122",
"t+	c #5A86E4",
"u+	c #8BB8F4",
"v+	c #A0CFFB",
"w+	c #ABE0FE",
"x+	c #A9E2FE",
"y+	c #A2DDFF",
"z+	c #A1E0FF",
"A+	c #9BE0FF",
"B+	c #90DEFE",
"C+	c #84DDFE",
"D+	c #7FDCFE",
"E+	c #8CDCFB",
"F+	c #DCF2F6",
"G+	c #F5FCF6",
"H+	c #F6FCF6",
"I+	c #4B4217",
"J+	c #655920",
"K+	c #64581F",
"L+	c #6E6121",
"M+	c #6B5E20",
"N+	c #2659A4",
"O+	c #5E91ED",
"P+	c #87BCF7",
"Q+	c #97D1FD",
"R+	c #9ADBFE",
"S+	c #94DCFE",
"T+	c #8EDCFF",
"U+	c #8BDEFF",
"V+	c #85DDFF",
"W+	c #7EDDFE",
"X+	c #77E0FE",
"Y+	c #72E0FE",
"Z+	c #86E1FB",
"`+	c #E1F6F4",
" @	c #F4FCF4",
".@	c #F5FDF5",
"+@	c #F5FDF4",
"@@	c #F5FCF4",
"#@	c #E9F7F5",
"$@	c #D9F1F6",
"%@	c #EEFAF6",
"&@	c #EBF9F6",
"*@	c #E4F7F6",
"=@	c #DDF6F6",
"-@	c #D2F3F7",
";@	c #A7D8F5",
">@	c #418CF3",
",@	c #366FF6",
"'@	c #528BEC",
")@	c #2D55B6",
"!@	c #235EB6",
"~@	c #73BBF4",
"{@	c #88C9F9",
"]@	c #8BCFFD",
"^@	c #8CD7FE",
"/@	c #88D9FE",
"(@	c #84DCFF",
"_@	c #80DDFF",
":@	c #7ADDFF",
"<@	c #73E0FE",
"[@	c #68E1FE",
"}@	c #5DDEFE",
"|@	c #57D9FD",
"1@	c #91E4F8",
"2@	c #F3FCF4",
"3@	c #F0FAF4",
"4@	c #EEFAF5",
"5@	c #EAF9F5",
"6@	c #DDF6F5",
"7@	c #D2F3F6",
"8@	c #ADE8F4",
"9@	c #6EC3F4",
"0@	c #3B82F9",
"a@	c #3273EF",
"b@	c #2A64D9",
"c@	c #2772D1",
"d@	c #7ED6F9",
"e@	c #9AE3F9",
"f@	c #93D9FA",
"g@	c #81D5FD",
"h@	c #7AD7FE",
"i@	c #74D8FF",
"j@	c #6FD8FF",
"k@	c #68DCFF",
"l@	c #5CDEFE",
"m@	c #4CDDFE",
"n@	c #42DAFE",
"o@	c #39D5FE",
"p@	c #36D4FE",
"q@	c #87E5FA",
"r@	c #B0EEF6",
"s@	c #A4E9F7",
"t@	c #7DDDFA",
"u@	c #86DCF9",
"v@	c #CAF0F5",
"w@	c #EAF9F4",
"x@	c #F0FBF4",
"y@	c #EDFAF4",
"z@	c #E9F8F5",
"A@	c #E3F6F5",
"B@	c #DBF5F5",
"C@	c #C7F0F4",
"D@	c #A7E8F2",
"E@	c #61BEF8",
"F@	c #1B80FB",
"G@	c #0C6FF2",
"H@	c #015CE6",
"I@	c #1F77D3",
"J@	c #78D7FA",
"K@	c #98E4F9",
"L@	c #ABE8F7",
"M@	c #8DDCFB",
"N@	c #6ED4FE",
"O@	c #64D3FF",
"P@	c #5BD3FF",
"Q@	c #4FD7FF",
"R@	c #43D8FE",
"S@	c #3AD8FE",
"T@	c #36D7FE",
"U@	c #32D6FE",
"V@	c #2FD6FE",
"W@	c #2CD4FE",
"X@	c #29D2FE",
"Y@	c #26CFFE",
"Z@	c #24CCFE",
"`@	c #26C9FE",
" #	c #3ECCFC",
".#	c #BDECF4",
"+#	c #F0FBF3",
"@#	c #ECFAF3",
"##	c #E8F8F4",
"$#	c #E2F6F4",
"%#	c #C9EEF5",
"&#	c #B9ECF3",
"*#	c #A4E7F2",
"=#	c #1FA0FC",
"-#	c #0487FC",
";#	c #0077F3",
">#	c #0064E7",
",#	c #1C87D9",
"'#	c #6DD8FA",
")#	c #90E2F9",
"!#	c #A4E7F6",
"~#	c #AAE6F6",
"{#	c #80D8FA",
"]#	c #54CDFD",
"^#	c #41CDFE",
"/#	c #33D0FF",
"(#	c #2ED3FE",
"_#	c #2DD5FE",
":#	c #2CD7FE",
"<#	c #2AD8FE",
"[#	c #28D7FE",
"}#	c #25D7FE",
"|#	c #23D6FE",
"1#	c #1FD3FE",
"2#	c #1CD1FE",
"3#	c #19CDFF",
"4#	c #16CAFF",
"5#	c #AFEBF5",
"6#	c #EEFAF2",
"7#	c #EAF9F3",
"8#	c #E5F7F3",
"9#	c #DCF5F3",
"0#	c #BAEAF1",
"a#	c #6DCFF6",
"b#	c #68CCF7",
"c#	c #0199FE",
"d#	c #0091FC",
"e#	c #0080F3",
"f#	c #006EE7",
"g#	c #1584DA",
"h#	c #5ED5FA",
"i#	c #86E0F9",
"j#	c #9BE5F7",
"k#	c #B2EBF5",
"l#	c #BAECF4",
"m#	c #A4E5F6",
"n#	c #5FD7FB",
"o#	c #28D0FF",
"p#	c #27D4FE",
"q#	c #27D7FE",
"r#	c #26D9FE",
"s#	c #24DAFE",
"t#	c #23DBFE",
"u#	c #21DAFE",
"v#	c #1ED9FE",
"w#	c #1BD6FE",
"x#	c #19D4FE",
"y#	c #16D1FF",
"z#	c #14CFFF",
"A#	c #62DCFA",
"B#	c #E1F7F2",
"C#	c #E7F8F2",
"D#	c #CBF0F1",
"E#	c #A7E6F2",
"F#	c #A9E7F2",
"G#	c #36BBFA",
"H#	c #00A0FE",
"I#	c #0097FB",
"J#	c #0086F3",
"K#	c #0074E7",
"L#	c #0B6CBF",
"M#	c #4ACCF9",
"N#	c #77DBF7",
"O#	c #8DE1F6",
"P#	c #A6E6F5",
"Q#	c #B5EAF4",
"R#	c #C1EDF3",
"S#	c #C5EEF3",
"T#	c #29D4FE",
"U#	c #22D6FE",
"V#	c #21DCFE",
"W#	c #1EDDFE",
"X#	c #1DDDFE",
"Y#	c #1BDDFE",
"Z#	c #19DCFE",
"`#	c #17DAFE",
" $	c #15D9FE",
".$	c #13D7FF",
"+$	c #11D4FF",
"@$	c #1BD4FE",
"#$	c #A1ECF4",
"$$	c #E0F6F0",
"%$	c #D7F4EF",
"&$	c #C8F1F0",
"*$	c #ADE9F1",
"=$	c #A5E7F2",
"-$	c #37C0F8",
";$	c #00A8FE",
">$	c #009EFB",
",$	c #008EF2",
"'$	c #0073DC",
")$	c #03539E",
"!$	c #39C0F3",
"~$	c #6CD9F6",
"{$	c #7EDCF5",
"]$	c #99E2F5",
"^$	c #ABE7F5",
"/$	c #BAEBF4",
"($	c #AEEAF5",
"_$	c #1CD8FE",
":$	c #1CDCFE",
"<$	c #1AE0FE",
"[$	c #19E0FE",
"}$	c #17E0FE",
"|$	c #15E0FE",
"1$	c #14DEFE",
"2$	c #13DDFE",
"3$	c #12DBFF",
"4$	c #10D9FF",
"5$	c #0ED6FE",
"6$	c #7CE7F6",
"7$	c #DCF5F0",
"8$	c #D4F4F0",
"9$	c #C6F0F0",
"0$	c #BBEDF1",
"a$	c #8EE2F3",
"b$	c #3BC6F7",
"c$	c #04AFFC",
"d$	c #01A5F8",
"e$	c #0092F0",
"f$	c #0063B8",
"g$	c #1BA5E9",
"h$	c #62D6F5",
"i$	c #6ADEF7",
"j$	c #17D7FE",
"k$	c #16DDFE",
"l$	c #16E0FE",
"m$	c #15E2FE",
"n$	c #16E3FE",
"o$	c #18E5FE",
"p$	c #1AE5FE",
"q$	c #1CE5FE",
"r$	c #1DE4FE",
"s$	c #1CE3FF",
"t$	c #1BE1FF",
"u$	c #3EE2FC",
"v$	c #C2F2F3",
"w$	c #DDF5F3",
"x$	c #D6F3F2",
"y$	c #CAF1F4",
"z$	c #B7ECF2",
"A$	c #83E0F4",
"B$	c #24C5FB",
"C$	c #26C0F9",
"D$	c #01A9F5",
"E$	c #008DE5",
"F$	c #0381CE",
"G$	c #13D9FF",
"H$	c #13DCFE",
"I$	c #13E1FE",
"J$	c #15E3FE",
"K$	c #19E6FE",
"L$	c #1DE8FE",
"M$	c #23E9FE",
"N$	c #25EAFE",
"O$	c #27E9FE",
"P$	c #28E9FE",
"Q$	c #28E7FF",
"R$	c #26E5FF",
"S$	c #43E6FD",
"T$	c #BDF2F4",
"U$	c #D7F4F2",
"V$	c #CCF1F3",
"W$	c #C4EFF4",
"X$	c #96E6F5",
"Y$	c #23CCFC",
"Z$	c #1BC7FC",
"`$	c #19BFF8",
" %	c #00A8F1",
".%	c #0081CE",
"+%	c #35ECFE",
"@%	c #35EBFE",
"#%	c #35EBFF",
"$%	c #34E9FF",
"%%	c #31E7FE",
"&%	c #73EBF8",
"*%	c #C1EFF0",
"=%	c #B9EDF1",
"-%	c #A4E8F3",
";%	c #55DBF9",
">%	c #0CCDFE",
",%	c #16C9FB",
"'%	c #00B7F6",
")%	c #00A3E7",
"!%	c #005892",
"~%	c #3FEDFE",
"{%	c #40EDFE",
"]%	c #40ECFF",
"^%	c #3EEBFF",
"/%	c #3BE9FF",
"(%	c #5EE9FA",
"_%	c #B6ECF1",
":%	c #ABE9F1",
"<%	c #74E3F6",
"[%	c #29D9FD",
"}%	c #15D2FE",
"|%	c #0AC9FA",
"1%	c #00B4EE",
"2%	c #0098D8",
"3%	c #4CF0FE",
"4%	c #4DEFFE",
"5%	c #4DEFFF",
"6%	c #4CEEFF",
"7%	c #4AEDFF",
"8%	c #6FECF9",
"9%	c #98E8F4",
"0%	c #77E7F7",
"a%	c #3BE3FE",
"b%	c #2CDEFE",
"c%	c #1FD5FB",
"d%	c #0FC7F2",
"e%	c #00A9DB",
"f%	c #56F1FE",
"g%	c #58F1FE",
"h%	c #59F1FF",
"i%	c #58F0FF",
"j%	c #56F0FF",
"k%	c #5AEEFD",
"l%	c #5DEBFC",
"m%	c #4AE9FE",
"n%	c #3EE6FE",
"o%	c #35E1FD",
"p%	c #22D2F3",
"q%	c #0EC0E7",
"r%	c #0083AD",
"s%	c #66F4FE",
"t%	c #68F4FE",
"u%	c #69F4FF",
"v%	c #68F3FF",
"w%	c #66F2FF",
"x%	c #62F1FF",
"y%	c #5AEFFE",
"z%	c #54EDFE",
"A%	c #48E7FC",
"B%	c #39DCF5",
"C%	c #1CC5E3",
"D%	c #09A1C4",
"E%	c #71F5FE",
"F%	c #74F6FE",
"G%	c #75F5FF",
"H%	c #74F5FF",
"I%	c #71F4FF",
"J%	c #6DF3FE",
"K%	c #65F0FE",
"L%	c #5BECFB",
"M%	c #49E0F2",
"N%	c #33CEE5",
"O%	c #12A8C4",
"P%	c #7FF7FD",
"Q%	c #82F7FE",
"R%	c #83F7FE",
"S%	c #83F6FE",
"T%	c #7EF5FD",
"U%	c #78F2FB",
"V%	c #6AEAF5",
"W%	c #5AE0ED",
"X%	c #3CC9D9",
"Y%	c #1996AC",
"Z%	c #86F3FA",
"`%	c #87F3FB",
" &	c #8BF5FA",
".&	c #8BF3F9",
"+&	c #86F1F8",
"@&	c #7BEBF2",
"#&	c #65DBE6",
"$&	c #4CCAD5",
"%&	c #53CCEF",
"&&	c #2BBCF1",
"*&	c #57D0F1",
"=&	c #54D0F1",
"-&	c #24BAEA",
";&	c #23A9CE",
">&	c #17708E",
",&	c #0477D1",
"'&	c #017FD3",
")&	c #0376B6",
"!&	c #056EAF",
"                        . + @ # $ % & * = - *                   ",
"                  ; > , ' ) ! ~ { ] ^ / ( _ : <                 ",
"                [ } | 1 2 3 4 5 6 - 7 : 8 9 0 a b c d d e e d f ",
"            g h i j k l m n o p q r s 8 t u v w x y z y A B C c ",
"          D E F G H I J K L M N O r P Q R S 8 T U S V U W X Y Z ",
"        `  ...+.@.#.$.%.&.*.=.-.;.>.,.'.,.).d !.~.!.~.~.{.].^./.",
"      (._.:.<.[.}.|.1.2.3.4.5.6.7.8.9.0.a.b.c.d.Y a.e.e.f.g.h./.",
"      i.j.k.l.m.n.o.p.q.r.s.t.u.v.w.x.y.z.A.B.C.D.w.E.E.F.G.h.H.",
"    I.J.K.L.M.N.O.P.Q.R.S.T.U.V.W.X.Y.Z.`. +.+++@+#+Z.Z.$+%+&+*+",
"  =+-+;+>+,+'+)+!+~+{+]+^+/+(+_+:+<+[+}+|+1+2+3+4+|+|+|+5+3+6+7+",
"  8+9+0+a+b+c+d+e+f+g+h+i+j+k+_+l+m+n+o+p+p+q+q+q+q+q+q+q+q+r+s+",
"  t+u+v+w+x+y+z+A+B+C+D+E+F+G+H+G+I+J+K+K+K+s+s+s+s+s+s+s+s+L+M+",
"N+O+P+Q+R+S+T+U+V+W+X+Y+Z+`+ @.@.@+@@@@@#@$@%@&@*@=@-@;@>@,@'@)@",
"!@~@{@]@^@/@(@_@:@<@[@}@|@1@2@@@@@@@@@@@2@3@4@5@*@6@7@8@9@0@a@b@",
"c@d@e@f@g@h@i@j@k@l@m@n@o@p@q@r@s@t@u@v@w@x@y@z@A@B@C@D@E@F@G@H@",
"I@J@K@L@M@N@O@P@Q@R@S@T@U@V@W@X@Y@Z@`@ #.#+#@###$#%#&#*#=#-#;#>#",
",#'#)#!#~#{#]#^#/#(#_#:#<#[#}#|#1#2#3#4#5#6#7#8#9#0#a#b#c#d#e#f#",
"g#h#i#j#k#l#m#n#o#p#q#r#s#t#u#v#w#x#y#z#A#B#C#B#D#E#F#G#H#I#J#K#",
"L#M#N#O#P#Q#R#S#T#U#u#V#W#X#Y#Z#`# $.$+$@$#$$$%$&$*$=$-$;$>$,$'$",
")$!$~${$]$^$/$($U#_$:$Y#<$[$}$|$1$2$3$4$5$6$7$8$9$0$a$b$c$d$e$f$",
"  g$h$* = - * i$j$`#k$l$m$n$o$p$q$r$s$t$u$v$w$x$y$z$A$B$C$D$E$  ",
"  F$^ / ( _ : < G$H$I$J$K$L$M$N$O$P$Q$R$S$T$U$V$W$X$Y$Z$`$ %.%  ",
"  - 7 : 8 9 0 a b c d d e e d f +%@%#%$%%%&%*%=%-%;%>%,%'%)%!%  ",
"  r s 8 t u v w x y z y A B C c ~%{%]%^%/%(%_%:%<%[%}%|%1%2%    ",
"  r P Q R S 8 T U S V U W X Y Z 3%4%5%6%7%8%9%0%a%b%c%d%e%      ",
";.>.,.'.,.).d !.~.!.~.~.{.].^./.f%g%h%i%j%k%l%m%n%o%p%q%r%      ",
"7.8.9.0.a.b.c.d.Y a.e.e.f.g.h./.s%t%u%v%w%x%y%z%A%B%C%D%        ",
"v.w.x.y.z.A.B.C.D.w.E.E.F.G.h.H.E%F%G%H%I%J%K%L%M%N%O%          ",
"W.X.Y.Z.`. +.+++@+#+Z.Z.$+%+&+*+P%Q%R%S%T%U%V%W%X%Y%            ",
"  <+[+}+|+1+2+3+4+|+|+|+5+3+6+7+Z%`% &.&+&@&#&$&                ",
"  m+n+o+p+p+q+q+q+q+q+q+q+q+r+s+%&&&*&=&-&;&>&                  ",
"  I+J+K+K+K+s+s+s+s+s+s+s+s+L+M+,&'&)&!&                        "};
