/* XPM */
static char * icon_link_broken_20x20_xpm[] = {
"20 20 97 2",
"  	c None",
". 	c #3D3D3D",
"+ 	c #919191",
"@ 	c #D1D1D1",
"# 	c #B9B9B9",
"$ 	c #4B4B4B",
"% 	c #8B8B8B",
"& 	c #BCBCBC",
"* 	c #494949",
"= 	c #5B5B5B",
"- 	c #373737",
"; 	c #8C8C8C",
"> 	c #C7C7C7",
", 	c #BFBFBF",
"' 	c #CECECE",
") 	c #4E4E4E",
"! 	c #3E3E3E",
"~ 	c #424242",
"{ 	c #8E8E8E",
"] 	c #D0D0D0",
"^ 	c #BDBDBD",
"/ 	c #8D8D8D",
"( 	c #CDCDCD",
"_ 	c #444444",
": 	c #525252",
"< 	c #6D6D6D",
"[ 	c #383838",
"} 	c #D8D8D8",
"| 	c #C1C1C1",
"1 	c #515151",
"2 	c #B0B0B0",
"3 	c #DEDEDE",
"4 	c #434343",
"5 	c #3B3B3B",
"6 	c #C8C8C8",
"7 	c #D5D5D5",
"8 	c #4F4F4F",
"9 	c #AEAEAE",
"0 	c #F8F8F8",
"a 	c #474747",
"b 	c #818181",
"c 	c #7E7E7E",
"d 	c #E1E1E1",
"e 	c #D4D4D4",
"f 	c #575757",
"g 	c #929292",
"h 	c #333333",
"i 	c #5F5F5F",
"j 	c #B2B2B2",
"k 	c #E0E0E0",
"l 	c #CBCBCB",
"m 	c #E7E7E7",
"n 	c #4D4D4D",
"o 	c #313131",
"p 	c #666666",
"q 	c #9C9C9C",
"r 	c #C0C0C0",
"s 	c #CACACA",
"t 	c #E3E3E3",
"u 	c #565656",
"v 	c #C6C6C6",
"w 	c #595959",
"x 	c #A9A9A9",
"y 	c #363636",
"z 	c #C5C5C5",
"A 	c #D3D3D3",
"B 	c #7F7F7F",
"C 	c #5A5A5A",
"D 	c #414141",
"E 	c #A0A0A0",
"F 	c #CCCCCC",
"G 	c #E2E2E2",
"H 	c #DADADA",
"I 	c #C3C3C3",
"J 	c #3A3A3A",
"K 	c #7A7A7A",
"L 	c #393939",
"M 	c #484848",
"N 	c #838383",
"O 	c #A4A4A4",
"P 	c #626262",
"Q 	c #464646",
"R 	c #7B7B7B",
"S 	c #D2D2D2",
"T 	c #404040",
"U 	c #585858",
"V 	c #7D7D7D",
"W 	c #B6B6B6",
"X 	c #646464",
"Y 	c #8F8F8F",
"Z 	c #4A4A4A",
"` 	c #747474",
" .	c #656565",
"..	c #343434",
"+.	c #7C7C7C",
"@.	c #ACACAC",
"#.	c #606060",
"                                        ",
"    . + @ # $                           ",
"      . % @ & *                         ",
"  =     - ; > , $                       ",
"  ' )   ! ~ { ] ^ *                     ",
"  / ( _ : < [ ; } |                     ",
"  _ { 1 2 3 4 5 6 7                     ",
"    ~ 8 9 0 a b #                       ",
"      - c d e f g                       ",
"      h i j k l           m n           ",
"        o p         q ^ r s t u         ",
"                  v w x y % z A 1       ",
"B B               7 A ) C D c & l 1     ",
"B B B B           E F G H I J K | F 8   ",
"  B B B B       L M N O 2 P Q L R & S   ",
"  B B B           T 5 M n U y   L V W   ",
"            B c c     ! X Y Z     L `   ",
"              B B B B B T V e  .    ..  ",
"                +.B B B B 4 @.] #.      ",
"                                        "};
