/* XPM */
static char * icon_folder_noaccess_20x20_xpm[] = {
"20 20 122 2",
"  	c None",
". 	c #85752A",
"+ 	c #88782B",
"@ 	c #87772A",
"# 	c #80722F",
"$ 	c #DBCF94",
"% 	c #D5C57C",
"& 	c #B9A367",
"* 	c #880906",
"= 	c #CC0000",
"- 	c #F10000",
"; 	c #D00000",
"> 	c #7C0000",
", 	c #DDD199",
"' 	c #D8CA87",
") 	c #D3C378",
"! 	c #C80000",
"~ 	c #EC0000",
"{ 	c #E60000",
"] 	c #AF0000",
"^ 	c #F90000",
"/ 	c #FF0000",
"( 	c #BF0000",
"_ 	c #736623",
": 	c #736523",
"< 	c #6D6121",
"[ 	c #8A792B",
"} 	c #F4F0DD",
"| 	c #E9E1BB",
"1 	c #FD0000",
"2 	c #CB0000",
"3 	c #EBE5C3",
"4 	c #EBE5C5",
"5 	c #E8E0BA",
"6 	c #AC0000",
"7 	c #FA0000",
"8 	c #AE0000",
"9 	c #E4DBAE",
"0 	c #D6C780",
"a 	c #746624",
"b 	c #E7DEB5",
"c 	c #990906",
"d 	c #EF0000",
"e 	c #C20000",
"f 	c #9C110D",
"g 	c #D7C984",
"h 	c #D5C67E",
"i 	c #D1C172",
"j 	c #9D0000",
"k 	c #A30403",
"l 	c #CEBC69",
"m 	c #726523",
"n 	c #DFD49D",
"o 	c #CF0000",
"p 	c #D5C67C",
"q 	c #9E1F17",
"r 	c #9C110C",
"s 	c #D2C375",
"t 	c #D1C070",
"u 	c #EE0000",
"v 	c #E70000",
"w 	c #CEBC66",
"x 	c #726423",
"y 	c #DDD197",
"z 	c #DF0000",
"A 	c #EB0000",
"B 	c #D2C275",
"C 	c #D3C377",
"D 	c #98231C",
"E 	c #9D0C09",
"F 	c #D4C479",
"G 	c #AB0000",
"H 	c #C40000",
"I 	c #95231B",
"J 	c #981610",
"K 	c #D1C06E",
"L 	c #F80000",
"M 	c #E00000",
"N 	c #CAB861",
"O 	c #DACD8F",
"P 	c #820F0C",
"Q 	c #F60000",
"R 	c #B70000",
"S 	c #D1C06F",
"T 	c #D0BF6E",
"U 	c #D3C479",
"V 	c #8F281F",
"W 	c #A60000",
"X 	c #FE0000",
"Y 	c #8F0906",
"Z 	c #6C5F21",
"` 	c #DFD39B",
" .	c #D4C47A",
"..	c #C70000",
"+.	c #A80000",
"@.	c #D1C171",
"#.	c #D2C274",
"$.	c #D2C273",
"%.	c #8A0000",
"&.	c #FC0000",
"*.	c #9D1D0F",
"=.	c #DCD093",
"-.	c #B60000",
";.	c #930A03",
">.	c #D0BE6B",
",.	c #D3C376",
"'.	c #CFBD6B",
").	c #6F6122",
"!.	c #7F7F7F",
"~.	c #CFBD69",
"{.	c #CEBD69",
"].	c #930502",
"^.	c #C30000",
"/.	c #F70000",
"(.	c #D30000",
"_.	c #7B0402",
":.	c #CBB964",
"<.	c #675B1F",
"[.	c #756724",
"}.	c #6E6121",
"|.	c #716322",
"1.	c #6B5E20",
"                                        ",
"                                        ",
"                                        ",
"        . + @ .                         ",
"      # $ % & * = - ; >                 ",
"    @ , ' ) ! ~ { ] ^ / ( _ _ : <       ",
"    [ } | ! 1 2 3 4 5 6 7 8 9 0 a       ",
"    [ b c d e / f g h i j / k l m       ",
"    [ n o / p q 1 r s s t u v w x       ",
"    [ y z A B C D / E i F G A w x       ",
"    [ n H / B B % I / J K L M N x       ",
"    [ O P Q R S T U V / W X Y w Z       ",
"    [ `  ...^ +.@.#.$.%.&.*.$.w x       ",
"    [ =. .@.z 1 - -.7 / ;.>.,.'.).!.!.!.",
"    [ i ~.{.{.].^./.(._.w w w :.).!.!.  ",
"    <.[.}.}.}.|.|.|.|.|.|.|.|.}.1.!.    ",
"                                        ",
"                                        ",
"                                        ",
"                                        "};
