/* XPM */
static char * icon_pipe_32x32_xpm[] = {
"32 32 187 2",
"  	c None",
". 	c #A1A1A1",
"+ 	c #8B8B8B",
"@ 	c #707070",
"# 	c #666666",
"$ 	c #464646",
"% 	c #A0A0A0",
"& 	c #B6B6B6",
"* 	c #878787",
"= 	c #6E6E6E",
"- 	c #868686",
"; 	c #7B7B7B",
"> 	c #727272",
", 	c #646464",
"' 	c #636363",
") 	c #AEAEAE",
"! 	c #C7C7C7",
"~ 	c #8D8D8D",
"{ 	c #9F9F9F",
"] 	c #C5C5C5",
"^ 	c #C9C9C9",
"/ 	c #BABABA",
"( 	c #B4B4B4",
"_ 	c #A8A8A8",
": 	c #9C9C9C",
"< 	c #747474",
"[ 	c #D7D7D7",
"} 	c #DDDDDD",
"| 	c #DFDFDF",
"1 	c #DCDCDC",
"2 	c #D6D6D6",
"3 	c #CECECE",
"4 	c #C8C8C8",
"5 	c #C2C2C2",
"6 	c #BBBBBB",
"7 	c #B0B0B0",
"8 	c #A7A7A7",
"9 	c #9A9A9A",
"0 	c #767676",
"a 	c #919191",
"b 	c #B9B9B9",
"c 	c #8C8C8C",
"d 	c #CACACA",
"e 	c #E0E0E0",
"f 	c #E2E2E2",
"g 	c #DADADA",
"h 	c #D0D0D0",
"i 	c #CCCCCC",
"j 	c #BFBFBF",
"k 	c #B8B8B8",
"l 	c #B3B3B3",
"m 	c #ACACAC",
"n 	c #A4A4A4",
"o 	c #BEBEBE",
"p 	c #B2B2B2",
"q 	c #909090",
"r 	c #949494",
"s 	c #C1C1C1",
"t 	c #D4D4D4",
"u 	c #D9D9D9",
"v 	c #DBDBDB",
"w 	c #D8D8D8",
"x 	c #CFCFCF",
"y 	c #CBCBCB",
"z 	c #C4C4C4",
"A 	c #D2D2D2",
"B 	c #8A8A8A",
"C 	c #4E4E4E",
"D 	c #303030",
"E 	c #1C1C1C",
"F 	c #191919",
"G 	c #212121",
"H 	c #434343",
"I 	c #454545",
"J 	c #7C7C7C",
"K 	c #555555",
"L 	c #A3A3A3",
"M 	c #F0F0F0",
"N 	c #4A4A4A",
"O 	c #000000",
"P 	c #010101",
"Q 	c #030303",
"R 	c #060606",
"S 	c #0A0A0A",
"T 	c #101010",
"U 	c #1A1A1A",
"V 	c #2C2C2C",
"W 	c #2E2E2E",
"X 	c #5B5B5B",
"Y 	c #373737",
"Z 	c #757575",
"` 	c #959595",
" .	c #9E9E9E",
"..	c #AAAAAA",
"+.	c #BCBCBC",
"@.	c #D3D3D3",
"#.	c #EBEBEB",
"$.	c #F1F1F1",
"%.	c #5A5A5A",
"&.	c #090909",
"*.	c #080808",
"=.	c #0C0C0C",
"-.	c #141414",
";.	c #2B2B2B",
">.	c #393939",
",.	c #3E3E3E",
"'.	c #3B3B3B",
").	c #171717",
"!.	c #606060",
"~.	c #787878",
"{.	c #C3C3C3",
"].	c #E4E4E4",
"^.	c #A6A6A6",
"/.	c #050505",
"(.	c #040404",
"_.	c #161616",
":.	c #1F1F1F",
"<.	c #2A2A2A",
"[.	c #3D3D3D",
"}.	c #404040",
"|.	c #131313",
"1.	c #424242",
"2.	c #4F4F4F",
"3.	c #595959",
"4.	c #989898",
"5.	c #A2A2A2",
"6.	c #ABABAB",
"7.	c #CDCDCD",
"8.	c #565656",
"9.	c #020202",
"0.	c #0F0F0F",
"a.	c #262626",
"b.	c #323232",
"c.	c #474747",
"d.	c #6C6C6C",
"e.	c #656565",
"f.	c #2F2F2F",
"g.	c #0B0B0B",
"h.	c #232323",
"i.	c #2D2D2D",
"j.	c #353535",
"k.	c #484848",
"l.	c #545454",
"m.	c #5D5D5D",
"n.	c #6A6A6A",
"o.	c #7D7D7D",
"p.	c #979797",
"q.	c #363636",
"r.	c #0D0D0D",
"s.	c #151515",
"t.	c #222222",
"u.	c #535353",
"v.	c #696969",
"w.	c #818181",
"x.	c #181818",
"y.	c #1E1E1E",
"z.	c #272727",
"A.	c #3F3F3F",
"B.	c #525252",
"C.	c #5C5C5C",
"D.	c #717171",
"E.	c #7A7A7A",
"F.	c #111111",
"G.	c #202020",
"H.	c #343434",
"I.	c #444444",
"J.	c #070707",
"K.	c #282828",
"L.	c #7E7E7E",
"M.	c #1D1D1D",
"N.	c #252525",
"O.	c #A5A5A5",
"P.	c #0E0E0E",
"Q.	c #515151",
"R.	c #121212",
"S.	c #414141",
"T.	c #828282",
"U.	c #D5D5D5",
"V.	c #7F7F7F",
"W.	c #1B1B1B",
"X.	c #DEDEDE",
"Y.	c #939393",
"Z.	c #5E5E5E",
"`.	c #969696",
" +	c #B7B7B7",
".+	c #313131",
"++	c #8F8F8F",
"                                                                ",
"                                                                ",
"                                                                ",
"                                                                ",
"                                                                ",
"                                                                ",
"                                                                ",
"                                                                ",
"        . + @ # $                                               ",
"    % & * = * - ; > , '                                         ",
"  ) ! ~ { ] ^ ] / ( ) _ % : <                                   ",
"  [ % % } | 1 2 3 4 5 6 ( 7 8 % 9 0                             ",
"a b c d } e f e 1 g 2 h i 4 j k l m n _ o b p % q r             ",
"{ - + s 3 t u v 1 1 v v w 2 x y ] z A g B C D E F G H I         ",
"J K - L p 6 z d x t w u v 1 u [ } M h N O P Q R S T U V W       ",
"X Y Z * `  ...l +.5 d 3 @.2 w [ #.$.%.&.P Q *.=.-.E ;.>.,.'.    ",
"Y ).I !.= ~.- q 9 L ) ( 6 {.d 3 ].^./.P (.&.T _.:.<.[.C X }.    ",
"|.=.G 1.2.3.# @ J - a 4.5.6.l / 7.8.P 9.*.0._.E a.b.c.X d.e.f.  ",
"  R g.h.i.j.}.k.l.m.n.> o.- q p.l q.9.R r.s.E t.i.'.u.v.w.- 1.  ",
"  r.9.r.x.y.z.W Y A.N B.C.# D.E.% b.(.&.F.x.G.a.H.I.!.J p.. '   ",
"    (.O J.=.T -.U G.K.f.Y A.N B.L.<.R r._.M.N.D $ X L.9 p l L.  ",
"        O Q /.*.g.0.|.x.:.N.i.H.X W &.F.U G.i.}.m.~. .k s O.E.  ",
"                  =.T g.g.P.|.x.'.Q.R.x.t.i.S.X T. .5 U.b > V.o.",
"                          =.J.S W.N b.h.b.S.X ~. .b u X.Y.v.V.V.",
"                                =.z.B.>.$ Z.; `. +y h ..< V.o.  ",
"                                        .+C < c { . * Z ~       ",
"                                            k.3.d.~.++          ",
"                                                                ",
"                                                                ",
"                                                                ",
"                                                                ",
"                                                                "};
