/* XPM */
static char * icon_folder_closed_32x32_xpm[] = {
"32 32 241 2",
"  	c None",
". 	c #736525",
"+ 	c #8D7B2D",
"@ 	c #8D7C2C",
"# 	c #8B7B2C",
"$ 	c #88782B",
"% 	c #7B6C26",
"& 	c #877730",
"* 	c #D1C173",
"= 	c #D4C57A",
"- 	c #D0BE6B",
"; 	c #CEBC67",
"> 	c #CDBA61",
", 	c #CDBB64",
"' 	c #BFAA4C",
") 	c #7C6E2E",
"! 	c #91823C",
"~ 	c #D0BF6F",
"{ 	c #D5C681",
"] 	c #D4C57C",
"^ 	c #D3C276",
"/ 	c #D3C378",
"( 	c #D2C174",
"_ 	c #CCBA64",
": 	c #C0AC50",
"< 	c #80722E",
"[ 	c #8A7A30",
"} 	c #D1C070",
"| 	c #D0C072",
"1 	c #D0BF6D",
"2 	c #D1C071",
"3 	c #D0BF70",
"4 	c #D1C174",
"5 	c #D1C273",
"6 	c #D2C175",
"7 	c #CFBF71",
"8 	c #CEBC6A",
"9 	c #C4B054",
"0 	c #756726",
"a 	c #685B20",
"b 	c #65591F",
"c 	c #65581F",
"d 	c #64581F",
"e 	c #60541D",
"f 	c #5D511C",
"g 	c #796A26",
"h 	c #F0EAD1",
"i 	c #F3EFDA",
"j 	c #F2EDD5",
"k 	c #EDE6C6",
"l 	c #E8E0B9",
"m 	c #EFE9CC",
"n 	c #ECE5C5",
"o 	c #EDE7C8",
"p 	c #F0EBD1",
"q 	c #EFE9CE",
"r 	c #EEE7C9",
"s 	c #EAE2BD",
"t 	c #EBE3C0",
"u 	c #E8DFB7",
"v 	c #E9E1BC",
"w 	c #E7DDB2",
"x 	c #E2D7A3",
"y 	c #DFD39A",
"z 	c #D8C983",
"A 	c #5F541D",
"B 	c #F2EED9",
"C 	c #E7DFB7",
"D 	c #E2D7A4",
"E 	c #DBCE8F",
"F 	c #DDCF94",
"G 	c #DED196",
"H 	c #DED39B",
"I 	c #DED298",
"J 	c #DDD097",
"K 	c #DED299",
"L 	c #DBCC8B",
"M 	c #D9CA85",
"N 	c #D8C882",
"O 	c #DBCE90",
"P 	c #DCCF93",
"Q 	c #DDD095",
"R 	c #DBCD8E",
"S 	c #D6C77F",
"T 	c #D0BF6C",
"U 	c #CDB960",
"V 	c #6C5E21",
"W 	c #EBE4C2",
"X 	c #E9E1BB",
"Y 	c #E7DEB5",
"Z 	c #E1D6A2",
"` 	c #DBCD8C",
" .	c #DCCE91",
"..	c #DDD094",
"+.	c #DCCF94",
"@.	c #DCCF92",
"#.	c #D9CB89",
"$.	c #D6C881",
"%.	c #D5C67E",
"&.	c #DBCC8D",
"*.	c #DACD90",
"=.	c #D8CB8A",
"-.	c #D4C47B",
";.	c #CFBD6A",
">.	c #C9B558",
",.	c #6A5D21",
"'.	c #E4DAAC",
").	c #E2D8A5",
"!.	c #D9CA88",
"~.	c #DACB88",
"{.	c #D9CA89",
"].	c #D9CA86",
"^.	c #D8C985",
"/.	c #D8CA87",
"(.	c #D8C984",
"_.	c #D5C57D",
":.	c #D2C377",
"<.	c #D2C275",
"[.	c #D5C57B",
"}.	c #D6C67F",
"|.	c #D7C882",
"1.	c #D5C47A",
"2.	c #CEBB65",
"3.	c #E2D8A8",
"4.	c #DED39C",
"5.	c #DCCF95",
"6.	c #D8CA88",
"7.	c #D8C986",
"8.	c #D5C57C",
"9.	c #D3C377",
"0.	c #D3C375",
"a.	c #D2C171",
"b.	c #D4C479",
"c.	c #D0BF6B",
"d.	c #CDBA62",
"e.	c #CDBB63",
"f.	c #C9B557",
"g.	c #685C21",
"h.	c #E2D7A6",
"i.	c #D7C780",
"j.	c #D6C882",
"k.	c #D6C880",
"l.	c #D6C67D",
"m.	c #D6C67E",
"n.	c #D7C781",
"o.	c #D8CA89",
"p.	c #D4C379",
"q.	c #D3C274",
"r.	c #D2C274",
"s.	c #D3C275",
"t.	c #D3C174",
"u.	c #CDBA63",
"v.	c #C8B556",
"w.	c #E1D6A4",
"x.	c #DCCE93",
"y.	c #DACB89",
"z.	c #D4C57B",
"A.	c #D5C77E",
"B.	c #D4C47A",
"C.	c #D8CB87",
"D.	c #D1C06F",
"E.	c #D3C273",
"F.	c #D0BF6E",
"G.	c #CBB85D",
"H.	c #C8B454",
"I.	c #E1D8A7",
"J.	c #DACE90",
"K.	c #D3C479",
"L.	c #D4C477",
"M.	c #D2C273",
"N.	c #CEBC66",
"O.	c #CEBD67",
"P.	c #CBB75B",
"Q.	c #C8B352",
"R.	c #D9CA87",
"S.	c #D7C782",
"T.	c #D2C173",
"U.	c #D0BE6C",
"V.	c #D1BF6E",
"W.	c #CFBC66",
"X.	c #CEBB64",
"Y.	c #CBB85C",
"Z.	c #CCB95F",
"`.	c #CDBB62",
" +	c #CBB75C",
".+	c #CAB656",
"++	c #C7B350",
"@+	c #62561F",
"#+	c #D2C071",
"$+	c #CFBD68",
"%+	c #CFBC68",
"&+	c #CCB960",
"*+	c #CCB85E",
"=+	c #CAB658",
"-+	c #CDB95F",
";+	c #C9B556",
">+	c #C9B657",
",+	c #C7B24F",
"'+	c #5F541E",
")+	c #D1C06E",
"!+	c #CFBD69",
"~+	c #CCBA61",
"{+	c #CCB961",
"]+	c #CBB85B",
"^+	c #CAB659",
"/+	c #CCB85D",
"(+	c #675A20",
"_+	c #CFBE6B",
":+	c #CCB95E",
"<+	c #CBB75A",
"[+	c #C9B453",
"}+	c #D5C478",
"|+	c #D2C272",
"1+	c #CFBC67",
"2+	c #CDBA60",
"3+	c #CEBB63",
"4+	c #CAB75A",
"5+	c #CBB95E",
"6+	c #CBB759",
"7+	c #C8B351",
"8+	c #C7B14E",
"9+	c #7E7E7E",
"0+	c #7F7F7F",
"a+	c #CAB556",
"b+	c #CAB557",
"c+	c #C9B555",
"d+	c #C7B24E",
"e+	c #C6B049",
"f+	c #7E7D7D",
"g+	c #5E521D",
"h+	c #C8B453",
"i+	c #C7B24D",
"j+	c #C7B14D",
"k+	c #C6B14C",
"l+	c #554A1A",
"m+	c #7D7D7D",
"n+	c #544A1A",
"o+	c #5F531D",
"p+	c #6D6022",
"q+	c #665A1F",
"r+	c #5D521D",
"                                                                ",
"                                                                ",
"                                                                ",
"                                                                ",
"                                                                ",
"              . + @ # # $ %                                     ",
"            & * = - ; > , ' )                                   ",
"          ! ~ { ] ^ / ( * _ : <                                 ",
"        [ } | 1 2 3 4 5 6 7 8 9 0 a b b b b b b c d e f         ",
"        g h i j k l k m n o p q r l s t u l v w x y z A         ",
"        g B v C D E F G H I J K G L M N O P Q R S T U V         ",
"        g W X Y Z `  .P J .. .+.@.#.$.%.&.E *.=.-.;.>.,.        ",
"        g Y '.).F !.~.#.{.].^./.(._.:.<.[.}.|.1.2 2.>.,.        ",
"        g 3.4.5.!.{.6.7.] 8.%.8.-./ 9.0.~ a.b.c.d.e.f.g.        ",
"        g h...R i.j.k.l.m.n.o.p.q.b.( 2 r.s.t.1 u.u.v.g.        ",
"        g w.x.y.z.A.-.B.= }.C.s.D.E.D.- } } F.T , G.H.g.        ",
"        g I.J.6.K.N 1.^ 6 L.[.M.F.; N.N., 2.O.F., P.Q.g.        ",
"        g ..R.S.^ s.r.T.U.c.U.V.T W.X.> Y.Z.e.`. +.+++@+        ",
"        g /.k._.#+U.V.V.N.u.> $+%+X.&+*+=+P.-+Y.;+>+,+'+        ",
"        g y.S = )+!+2.~+{+U > u.d.{+]+=+^+Y.Z./+=+;+,+(+        ",
"        g |.b.s._+2.e.> G.Z.e.Z.:+U P.=+^+<+P.G.=+[+,+(+        ",
"        g }+|+D.1+2+3+, 4+5+X.Y. +d.Y.^+6+=+;+]+f.7+8+@+9+0+9+9+",
"        g 2.d.Z.Y.Y. +P.=+=+^+=+a+=+b+;+c+c+c+;+Q.d+e+d f+0+9+  ",
"        g+h+Q.7+,+,+,+,+d+d+d+d+i+i+i+j+j+j+j+d+j+k+e+l+9+m+    ",
"        n+o+@+@+@+@+@+@+V p+p+p+p+p+p+p+p+p+p+p+(+(+q+r+9+      ",
"                                                                ",
"                                                                ",
"                                                                ",
"                                                                ",
"                                                                ",
"                                                                ",
"                                                                "};
