/* XPM */
static char * icon_chat_32x32_xpm[] = {
"32 32 719 2",
"  	c None",
". 	c #808FA4",
"+ 	c #9BA8C8",
"@ 	c #9D93DA",
"# 	c #9181D5",
"$ 	c #B1A7E0",
"% 	c #9482DB",
"& 	c #705FB9",
"* 	c #5D5398",
"= 	c #353535",
"- 	c #5A6286",
"; 	c #C0CBD9",
"> 	c #DCE7F6",
", 	c #DCDEF7",
"' 	c #CCC4F3",
") 	c #CFBFF2",
"! 	c #D7C9F4",
"~ 	c #D6C7F6",
"{ 	c #C8B9F4",
"] 	c #DDDCF9",
"^ 	c #626260",
"/ 	c #D8D6D2",
"( 	c #F4F1EC",
"_ 	c #F2EFEB",
": 	c #F5F2ED",
"< 	c #E9E6E1",
"[ 	c #787876",
"} 	c #C0CBEE",
"| 	c #B3BEF0",
"1 	c #C2CCF3",
"2 	c #C5CFF4",
"3 	c #D5D9F8",
"4 	c #E0DAFA",
"5 	c #E7D6FA",
"6 	c #E4D5F9",
"7 	c #DBD0F9",
"8 	c #E3E2FB",
"9 	c #959591",
"0 	c #F8F5F0",
"a 	c #FAF7F2",
"b 	c #FEFBF6",
"c 	c #B9B6B1",
"d 	c #303030",
"e 	c #414040",
"f 	c #FCF9F4",
"g 	c #FFFCF7",
"h 	c #82817F",
"i 	c #8896B5",
"j 	c #CEE1F1",
"k 	c #D4E1F7",
"l 	c #C8D5F4",
"m 	c #D4E3F8",
"n 	c #DBE8FB",
"o 	c #E3EBFD",
"p 	c #E9E9FD",
"q 	c #ECE3FD",
"r 	c #E9E1FD",
"s 	c #E0DCFC",
"t 	c #E1E3FB",
"u 	c #DDDAD6",
"v 	c #FAF8F3",
"w 	c #B4B1AB",
"x 	c #373736",
"y 	c #FDFAF5",
"z 	c #F8F5F1",
"A 	c #F0EDE8",
"B 	c #A0B5D4",
"C 	c #CDE2F8",
"D 	c #CEDEF7",
"E 	c #DAEAF9",
"F 	c #E8F5FC",
"G 	c #EDF7FE",
"H 	c #ECF4FE",
"I 	c #EAEFFE",
"J 	c #E7EAFE",
"K 	c #E1E2FE",
"L 	c #D8DAFD",
"M 	c #DDE8FA",
"N 	c #EDFAFB",
"O 	c #FBF8F3",
"P 	c #F0EBE3",
"Q 	c #403F3F",
"R 	c #97B8DA",
"S 	c #AFC5F3",
"T 	c #BACFF5",
"U 	c #D1E4FA",
"V 	c #EAF7FD",
"W 	c #F2FAFD",
"X 	c #F2F8FE",
"Y 	c #EBF2FE",
"Z 	c #E0E7FE",
"` 	c #D5DDFE",
" .	c #CCD5FD",
"..	c #DCE7FC",
"+.	c #E5F0FA",
"@.	c #D1DDFC",
"#.	c #FAF7F3",
"$.	c #FEF9F1",
"%.	c #464545",
"&.	c #93928D",
"*.	c #F8F6F1",
"=.	c #EDEAE6",
"-.	c #474747",
";.	c #7897BC",
">.	c #9DB5F1",
",.	c #AAC1F4",
"'.	c #CFE2FB",
").	c #E5F2FE",
"!.	c #EBF5FF",
"~.	c #EAF4FE",
"{.	c #E5F0FE",
"].	c #DAE8FE",
"^.	c #CBDAFE",
"/.	c #C0D0FE",
"(.	c #B8C9FD",
"_.	c #D1E1FB",
":.	c #CADBFB",
"<.	c #ACBEFC",
"[.	c #4B4B4B",
"}.	c #A09E9C",
"|.	c #F2EEE6",
"1.	c #ABA9A4",
"2.	c #F7F2EA",
"3.	c #F6F3EE",
"4.	c #DBD9D4",
"5.	c #8CA9EA",
"6.	c #9EB8F3",
"7.	c #BCD3F9",
"8.	c #DEECFE",
"9.	c #E6F2FE",
"0.	c #E2EFFF",
"a.	c #DCECFE",
"b.	c #D4E7FE",
"c.	c #CBE0FE",
"d.	c #BED6FE",
"e.	c #B4CEFE",
"f.	c #ACC8FD",
"g.	c #CFE1FA",
"h.	c #D0E1FA",
"i.	c #D9E7FA",
"j.	c #F0FAF9",
"k.	c #D2CFCB",
"l.	c #D5D1CB",
"m.	c #95938F",
"n.	c #F1EFEA",
"o.	c #DBD9D5",
"p.	c #686867",
"q.	c #7190E2",
"r.	c #8DABF0",
"s.	c #B0CCF8",
"t.	c #CCE3FD",
"u.	c #DDEDFF",
"v.	c #D9ECFF",
"w.	c #CFE7FF",
"x.	c #CBE6FE",
"y.	c #C3E3FE",
"z.	c #B8DDFE",
"A.	c #A9D6FE",
"B.	c #A2D0FC",
"C.	c #C7E2F9",
"D.	c #EFF9F8",
"E.	c #F3FBF9",
"F.	c #F3FBF8",
"G.	c #F2FBF8",
"H.	c #F0FBF9",
"I.	c #777674",
"J.	c #908D8A",
"K.	c #E0DDD9",
"L.	c #8E8D8B",
"M.	c #2D417F",
"N.	c #7E9CEE",
"O.	c #96B7F4",
"P.	c #B9D9FC",
"Q.	c #CBE8FE",
"R.	c #D1EBFF",
"S.	c #C8E5FF",
"T.	c #C3E4FF",
"U.	c #BEE5FE",
"V.	c #B1E1FE",
"W.	c #A3DCFE",
"X.	c #94D6FD",
"Y.	c #BBE1F9",
"Z.	c #F3FAF8",
"`.	c #F5FCF7",
" +	c #F5FCF8",
".+	c #F3FBF7",
"++	c #404040",
"@+	c #EFECE7",
"#+	c #EDEAE5",
"$+	c #494948",
"%+	c #494949",
"&+	c #A7D3F5",
"*+	c #3359AB",
"=+	c #5579C8",
"-+	c #88AEF1",
";+	c #A1C8F8",
">+	c #B5E1FE",
",+	c #BBE8FE",
"'+	c #B7E2FF",
")+	c #B4E0FF",
"!+	c #B1E3FF",
"~+	c #A7E2FE",
"{+	c #94DEFE",
"]+	c #8ADBFE",
"^+	c #8EDBFD",
"/+	c #D8F1F8",
"(+	c #F5FBF6",
"_+	c #F5FBF7",
":+	c #F4FBF7",
"<+	c #F3FAF6",
"[+	c #F2FBF6",
"}+	c #3E3E3D",
"|+	c #3D3E3C",
"1+	c #E4F7F7",
"2+	c #DCF4F7",
"3+	c #ADD3F4",
"4+	c #C3EAF8",
"5+	c #BDEDFA",
"6+	c #A8D9F6",
"7+	c #6B8FD9",
"8+	c #5A86E4",
"9+	c #8BB8F4",
"0+	c #A0CFFB",
"a+	c #ABE0FE",
"b+	c #A9E2FE",
"c+	c #A2DDFF",
"d+	c #A1E0FF",
"e+	c #9BE0FF",
"f+	c #90DEFE",
"g+	c #84DDFE",
"h+	c #7FDCFE",
"i+	c #8CDCFB",
"j+	c #DCF2F6",
"k+	c #F5FCF6",
"l+	c #F6FCF6",
"m+	c #F4FBF5",
"n+	c #3A3A3A",
"o+	c #F1EEEA",
"p+	c #424240",
"q+	c #EAF8F7",
"r+	c #E5F6F7",
"s+	c #DDF5F7",
"t+	c #C2E4F6",
"u+	c #B0DAF5",
"v+	c #B4E6F9",
"w+	c #99CCF4",
"x+	c #75A1EA",
"y+	c #2659A4",
"z+	c #5E91ED",
"A+	c #87BCF7",
"B+	c #97D1FD",
"C+	c #9ADBFE",
"D+	c #94DCFE",
"E+	c #8EDCFF",
"F+	c #8BDEFF",
"G+	c #85DDFF",
"H+	c #7EDDFE",
"I+	c #77E0FE",
"J+	c #72E0FE",
"K+	c #86E1FB",
"L+	c #E1F6F4",
"M+	c #F4FCF4",
"N+	c #F5FDF5",
"O+	c #F5FDF4",
"P+	c #F5FCF4",
"Q+	c #3B3B3A",
"R+	c #EEFAF6",
"S+	c #EBF9F6",
"T+	c #E4F7F6",
"U+	c #DDF6F6",
"V+	c #D2F3F7",
"W+	c #A7D8F5",
"X+	c #418CF3",
"Y+	c #366FF6",
"Z+	c #528BEC",
"`+	c #2D55B6",
" @	c #235EB6",
".@	c #73BBF4",
"+@	c #88C9F9",
"@@	c #8BCFFD",
"#@	c #8CD7FE",
"$@	c #88D9FE",
"%@	c #84DCFF",
"&@	c #80DDFF",
"*@	c #7ADDFF",
"=@	c #73E0FE",
"-@	c #68E1FE",
";@	c #5DDEFE",
">@	c #57D9FD",
",@	c #91E4F8",
"'@	c #F3FCF4",
")@	c #F0FAF4",
"!@	c #EEFAF5",
"~@	c #EAF9F5",
"{@	c #DDF6F5",
"]@	c #D2F3F6",
"^@	c #ADE8F4",
"/@	c #6EC3F4",
"(@	c #3B82F9",
"_@	c #3273EF",
":@	c #2A64D9",
"<@	c #2772D1",
"[@	c #7ED6F9",
"}@	c #9AE3F9",
"|@	c #93D9FA",
"1@	c #81D5FD",
"2@	c #7AD7FE",
"3@	c #74D8FF",
"4@	c #6FD8FF",
"5@	c #68DCFF",
"6@	c #5CDEFE",
"7@	c #4CDDFE",
"8@	c #42DAFE",
"9@	c #39D5FE",
"0@	c #36D4FE",
"a@	c #87E5FA",
"b@	c #B0EEF6",
"c@	c #A4E9F7",
"d@	c #7DDDFA",
"e@	c #86DCF9",
"f@	c #CAF0F5",
"g@	c #EAF9F4",
"h@	c #F0FBF4",
"i@	c #EDFAF4",
"j@	c #E9F8F5",
"k@	c #E3F6F5",
"l@	c #DBF5F5",
"m@	c #C7F0F4",
"n@	c #A7E8F2",
"o@	c #61BEF8",
"p@	c #1B80FB",
"q@	c #0C6FF2",
"r@	c #015CE6",
"s@	c #1F77D3",
"t@	c #78D7FA",
"u@	c #98E4F9",
"v@	c #ABE8F7",
"w@	c #8DDCFB",
"x@	c #6ED4FE",
"y@	c #64D3FF",
"z@	c #5BD3FF",
"A@	c #4FD7FF",
"B@	c #43D8FE",
"C@	c #3AD8FE",
"D@	c #36D7FE",
"E@	c #32D6FE",
"F@	c #2FD6FE",
"G@	c #2CD4FE",
"H@	c #29D2FE",
"I@	c #26CFFE",
"J@	c #24CCFE",
"K@	c #26C9FE",
"L@	c #3ECCFC",
"M@	c #BDECF4",
"N@	c #F0FBF3",
"O@	c #ECFAF3",
"P@	c #E8F8F4",
"Q@	c #E2F6F4",
"R@	c #C9EEF5",
"S@	c #B9ECF3",
"T@	c #A4E7F2",
"U@	c #1FA0FC",
"V@	c #0487FC",
"W@	c #0077F3",
"X@	c #0064E7",
"Y@	c #1C87D9",
"Z@	c #6DD8FA",
"`@	c #90E2F9",
" #	c #A4E7F6",
".#	c #AAE6F6",
"+#	c #80D8FA",
"@#	c #54CDFD",
"##	c #41CDFE",
"$#	c #33D0FF",
"%#	c #2ED3FE",
"&#	c #2DD5FE",
"*#	c #2CD7FE",
"=#	c #2AD8FE",
"-#	c #28D7FE",
";#	c #25D7FE",
">#	c #23D6FE",
",#	c #1FD3FE",
"'#	c #1CD1FE",
")#	c #19CDFF",
"!#	c #16CAFF",
"~#	c #AFEBF5",
"{#	c #EEFAF2",
"]#	c #EAF9F3",
"^#	c #E5F7F3",
"/#	c #DCF5F3",
"(#	c #BAEAF1",
"_#	c #6DCFF6",
":#	c #68CCF7",
"<#	c #0199FE",
"[#	c #0091FC",
"}#	c #0080F3",
"|#	c #006EE7",
"1#	c #1584DA",
"2#	c #5ED5FA",
"3#	c #86E0F9",
"4#	c #9BE5F7",
"5#	c #B2EBF5",
"6#	c #BAECF4",
"7#	c #A4E5F6",
"8#	c #5FD7FB",
"9#	c #28D0FF",
"0#	c #27D4FE",
"a#	c #27D7FE",
"b#	c #26D9FE",
"c#	c #24DAFE",
"d#	c #23DBFE",
"e#	c #21DAFE",
"f#	c #1ED9FE",
"g#	c #1BD6FE",
"h#	c #19D4FE",
"i#	c #16D1FF",
"j#	c #14CFFF",
"k#	c #62DCFA",
"l#	c #E1F7F2",
"m#	c #E7F8F2",
"n#	c #CBF0F1",
"o#	c #A7E6F2",
"p#	c #A9E7F2",
"q#	c #36BBFA",
"r#	c #00A0FE",
"s#	c #0097FB",
"t#	c #0086F3",
"u#	c #0074E7",
"v#	c #0B6CBF",
"w#	c #4ACCF9",
"x#	c #77DBF7",
"y#	c #8DE1F6",
"z#	c #A6E6F5",
"A#	c #B5EAF4",
"B#	c #C1EDF3",
"C#	c #C5EEF3",
"D#	c #29D4FE",
"E#	c #22D6FE",
"F#	c #21DCFE",
"G#	c #1EDDFE",
"H#	c #1BDDFE",
"I#	c #19DCFE",
"J#	c #17DAFE",
"K#	c #15D9FE",
"L#	c #13D7FF",
"M#	c #11D4FF",
"N#	c #1BD4FE",
"O#	c #A1ECF4",
"P#	c #E0F6F0",
"Q#	c #D7F4EF",
"R#	c #C8F1F0",
"S#	c #ADE9F1",
"T#	c #A5E7F2",
"U#	c #37C0F8",
"V#	c #00A8FE",
"W#	c #009EFB",
"X#	c #008EF2",
"Y#	c #0073DC",
"Z#	c #03539E",
"`#	c #39C0F3",
" $	c #6CD9F6",
".$	c #7EDCF5",
"+$	c #99E2F5",
"@$	c #ABE7F5",
"#$	c #BAEBF4",
"$$	c #AEEAF5",
"%$	c #1CD8FE",
"&$	c #1CDCFE",
"*$	c #363636",
"=$	c #17E0FE",
"-$	c #15E0FE",
";$	c #14DEFE",
">$	c #13DDFE",
",$	c #12DBFF",
"'$	c #10D9FF",
")$	c #0ED6FE",
"!$	c #7CE7F6",
"~$	c #DCF5F0",
"{$	c #D4F4F0",
"]$	c #C6F0F0",
"^$	c #BBEDF1",
"/$	c #8EE2F3",
"($	c #3BC6F7",
"_$	c #04AFFC",
":$	c #01A5F8",
"<$	c #0092F0",
"[$	c #0063B8",
"}$	c #1BA5E9",
"|$	c #62D6F5",
"1$	c #74DBF5",
"2$	c #89DDF5",
"3$	c #9CE3F4",
"4$	c #ADE8F1",
"5$	c #6ADEF7",
"6$	c #17D7FE",
"7$	c #16DDFE",
"8$	c #737270",
"9$	c #18E5FE",
"0$	c #1AE5FE",
"a$	c #1CE5FE",
"b$	c #1DE4FE",
"c$	c #1CE3FF",
"d$	c #1BE1FF",
"e$	c #3EE2FC",
"f$	c #C2F2F3",
"g$	c #DDF5F3",
"h$	c #D6F3F2",
"i$	c #CAF1F4",
"j$	c #B7ECF2",
"k$	c #83E0F4",
"l$	c #24C5FB",
"m$	c #26C0F9",
"n$	c #01A9F5",
"o$	c #008DE5",
"p$	c #0381CE",
"q$	c #47CBF4",
"r$	c #67D7F5",
"s$	c #78DBF5",
"t$	c #83DEF4",
"u$	c #8FE2F3",
"v$	c #5CDDF8",
"w$	c #13D9FF",
"x$	c #13DCFE",
"y$	c #A2A19E",
"z$	c #23E9FE",
"A$	c #25EAFE",
"B$	c #27E9FE",
"C$	c #28E9FE",
"D$	c #28E7FF",
"E$	c #26E5FF",
"F$	c #43E6FD",
"G$	c #BDF2F4",
"H$	c #D7F4F2",
"I$	c #CCF1F3",
"J$	c #C4EFF4",
"K$	c #96E6F5",
"L$	c #23CCFC",
"M$	c #1BC7FC",
"N$	c #19BFF8",
"O$	c #00A8F1",
"P$	c #0081CE",
"Q$	c #004E8F",
"R$	c #1DB6EF",
"S$	c #4FD1F5",
"T$	c #1D312D",
"U$	c #716F6D",
"V$	c #30ECFE",
"W$	c #32ECFE",
"X$	c #35ECFE",
"Y$	c #35EBFE",
"Z$	c #35EBFF",
"`$	c #34E9FF",
" %	c #31E7FE",
".%	c #73EBF8",
"+%	c #C1EFF0",
"@%	c #B9EDF1",
"#%	c #A4E8F3",
"$%	c #55DBF9",
"%%	c #0CCDFE",
"&%	c #16C9FB",
"*%	c #00B7F6",
"=%	c #00A3E7",
"-%	c #005892",
";%	c #06A1E2",
">%	c #4F4F4E",
",%	c #D1CDC7",
"'%	c #E2E0D9",
")%	c #EBE9E2",
"!%	c #F4F0E8",
"~%	c #F7F3EB",
"{%	c #FBF7F2",
"]%	c #AEABA6",
"^%	c #3CEDFE",
"/%	c #3FEDFE",
"(%	c #40EDFE",
"_%	c #40ECFF",
":%	c #3EEBFF",
"<%	c #3BE9FF",
"[%	c #5EE9FA",
"}%	c #B6ECF1",
"|%	c #ABE9F1",
"1%	c #74E3F6",
"2%	c #29D9FD",
"3%	c #15D2FE",
"4%	c #0AC9FA",
"5%	c #00B4EE",
"6%	c #0098D8",
"7%	c #827F7D",
"8%	c #F5F0E9",
"9%	c #F9F4EC",
"0%	c #FAF6EE",
"a%	c #FDF9F3",
"b%	c #FCF8F2",
"c%	c #FDF9F2",
"d%	c #CFCBC4",
"e%	c #48F0FE",
"f%	c #4CF0FE",
"g%	c #4DEFFE",
"h%	c #4DEFFF",
"i%	c #4CEEFF",
"j%	c #4AEDFF",
"k%	c #6FECF9",
"l%	c #98E8F4",
"m%	c #77E7F7",
"n%	c #3BE3FE",
"o%	c #2CDEFE",
"p%	c #1FD5FB",
"q%	c #0FC7F2",
"r%	c #00A9DB",
"s%	c #7B7977",
"t%	c #EAE6DE",
"u%	c #FAF5ED",
"v%	c #FCF7EF",
"w%	c #F8F4EC",
"x%	c #FCF7F0",
"y%	c #D5D1CC",
"z%	c #52F1FE",
"A%	c #56F1FE",
"B%	c #58F1FE",
"C%	c #59F1FF",
"D%	c #58F0FF",
"E%	c #56F0FF",
"F%	c #5AEEFD",
"G%	c #5DEBFC",
"H%	c #4AE9FE",
"I%	c #3EE6FE",
"J%	c #35E1FD",
"K%	c #22D2F3",
"L%	c #0EC0E7",
"M%	c #0083AD",
"N%	c #F2EEE7",
"O%	c #F6F1E9",
"P%	c #FFFAF2",
"Q%	c #E3E0DB",
"R%	c #61F4FE",
"S%	c #66F4FE",
"T%	c #68F4FE",
"U%	c #69F4FF",
"V%	c #68F3FF",
"W%	c #66F2FF",
"X%	c #62F1FF",
"Y%	c #5AEFFE",
"Z%	c #54EDFE",
"`%	c #48E7FC",
" &	c #39DCF5",
".&	c #1CC5E3",
"+&	c #09A1C4",
"@&	c #F8F3EB",
"#&	c #F6F2EA",
"$&	c #C0BCB7",
"%&	c #6CF5FE",
"&&	c #71F5FE",
"*&	c #74F6FE",
"=&	c #75F5FF",
"-&	c #74F5FF",
";&	c #71F4FF",
">&	c #6DF3FE",
",&	c #65F0FE",
"'&	c #5BECFB",
")&	c #49E0F2",
"!&	c #33CEE5",
"~&	c #12A8C4",
"{&	c #7F7F7F",
"]&	c #FEF9F3",
"^&	c #FDF8F0",
"/&	c #F5F1E9",
"(&	c #DEDCD4",
"_&	c #6C6B68",
":&	c #425648",
"<&	c #79F7FD",
"[&	c #7FF7FD",
"}&	c #82F7FE",
"|&	c #83F7FE",
"1&	c #83F6FE",
"2&	c #7EF5FD",
"3&	c #78F2FB",
"4&	c #6AEAF5",
"5&	c #5AE0ED",
"6&	c #3CC9D9",
"7&	c #1996AC",
"8&	c #BAB6B3",
"9&	c #F3EEE6",
"0&	c #DAD6CF",
"a&	c #969390",
"b&	c #73EEFB",
"c&	c #79EDFA",
"d&	c #86F3FA",
"e&	c #87F3FB",
"f&	c #8BF5FA",
"g&	c #8BF3F9",
"h&	c #86F1F8",
"i&	c #7BEBF2",
"j&	c #65DBE6",
"k&	c #4CCAD5",
"l&	c #CEC9C4",
"m&	c #F3EEE7",
"n&	c #A3A09C",
"o&	c #22302B",
"p&	c #28C0F3",
"q&	c #2DBCF1",
"r&	c #5BCFF0",
"s&	c #53CCEF",
"t&	c #2BBCF1",
"u&	c #57D0F1",
"v&	c #54D0F1",
"w&	c #24BAEA",
"x&	c #23A9CE",
"y&	c #17708E",
"z&	c #565554",
"A&	c #595857",
"B&	c #4D4C4B",
"C&	c #0871B5",
"D&	c #0B83C6",
"E&	c #0E8CD4",
"F&	c #0E81D1",
"G&	c #0477D1",
"H&	c #017FD3",
"I&	c #0376B6",
"J&	c #056EAF",
"                        . + @ # $ % & *     = = = = = = = =     ",
"                  - ; > , ' ) ! ~ { ] = = ^ / ( ( ( _ : < [ =   ",
"                } | 1 2 3 4 5 6 7 8 = 9 0 a b c d e b b f g h = ",
"            i j k l m n o p q r s t = u v a b w d x g y z g A = ",
"          B C D E F G H I J K L M N = O O g y P d Q O f O O O = ",
"        R S T U V W X Y Z `  ...+.@.= #.b b a $.%.&.*.f 0 O =.-.",
"      ;.>.,.'.).!.~.{.].^./.(._.:.<.[.}.g y g |.1.2.y y 3.4.-.  ",
"      5.6.7.8.9.0.a.b.c.d.e.f.g.h.i.j.-.k.b f l.d m.n.: o.p.-.  ",
"    q.r.s.t.u.v.w.x.y.z.A.B.C.D.E.F.G.H.I.O O |.J.2.( K.L.-.    ",
"  M.N.O.P.Q.R.S.T.U.V.W.X.Y.Z.`. + +.+G.++@+a #+-.-.$+[.%+&+*+  ",
"  =+-+;+>+,+'+)+!+~+{+]+^+/+(+`._+:+<+[+}+y #.|+1+2+3+4+5+6+7+  ",
"  8+9+0+a+b+c+d+e+f+g+h+i+j+k+l+k+k+m+m+n+o+p+q+r+s+t+u+v+w+x+  ",
"y+z+A+B+C+D+E+F+G+H+I+J+K+L+M+N+N+O+P+P+n+Q+R+S+T+U+V+W+X+Y+Z+`+",
" @.@+@@@#@$@%@&@*@=@-@;@>@,@'@P+P+P+P+P+'@)@!@~@T+{@]@^@/@(@_@:@",
"<@[@}@|@1@2@3@4@5@6@7@8@9@0@a@b@c@d@e@f@g@h@i@j@k@l@m@n@o@p@q@r@",
"s@t@u@v@w@x@y@z@A@B@C@D@E@F@G@H@I@J@K@L@M@N@O@P@Q@R@S@T@U@V@W@X@",
"Y@Z@`@ #.#+#@###$#%#&#*#=#-#;#>#,#'#)#!#~#{#]#^#/#(#_#:#<#[#}#|#",
"1#2#3#4#5#6#7#8#9#0#a#b#c#d#e#f#g#h#i#j#k#l#m#l#n#o#p#q#r#s#t#u#",
"v#w#x#y#z#A#B#C#D#E#e#F#G#= H#I#J#K#L#M#N#O#P#Q#R#S#T#U#V#W#X#Y#",
"Z#`# $.$+$@$#$$$E#%$&$H#= *$=$-$;$>$,$'$)$!$~${$]$^$/$($_$:$<$[$",
"  }$|$1$2$3$4$5$6$J#7$= g 8$9$0$a$b$c$d$e$f$g$h$i$j$k$l$m$n$o$  ",
"  p$q$r$s$t$u$v$w$x$n+y$g [ z$A$B$C$D$E$F$G$H$I$J$K$L$M$N$O$P$  ",
"  Q$R$S$T$= = = = = 3.O g U$V$W$X$Y$Z$`$ %.%+%@%#%$%%%&%*%=%-%  ",
"    ;%= >%,%'%)%!%~%y y {%]%= ^%/%(%_%:%<%[%}%|%1%2%3%4%5%6%    ",
"    = 7%8%9%e d c 0%a%b%c%d%= e%f%g%h%i%j%k%l%m%n%o%p%q%r%      ",
"  = s%t%u%v%x d w w%v%x%y y%= z%A%B%C%D%E%F%G%H%I%J%K%L%M%      ",
"  = N%O%v%v%Q d P P%~%w%b Q%= R%S%T%U%V%W%X%Y%Z%`% &.&+&        ",
"  = 9%@&0%P%&.%.$.$.#&#&u%$&= %&&&*&=&-&;&>&,&'&)&!&~&{&{&{&    ",
"  = b ]&^&v%2.1.|.v%@&/&(&_&:&<&[&}&|&1&2&3&4&5&6&7&{&{&{&{&    ",
"  = 8&2./&P%m.d l.v%9&0&a&T$b&c&d&e&f&g&h&i&j&k&{&{&{&{&        ",
"    = = l&!%2.J.|.m&n&= o&p&q&r&s&t&u&v&w&x&y&{&                ",
"        = = z&A&B&>%=   C&D&E&F&G&H&I&J&                        "};
