/* XPM */
static char * icon_socket_20x20_xpm[] = {
"20 20 152 2",
"  	c None",
". 	c #FEFEFD",
"+ 	c #FCFCFB",
"@ 	c #FBFBF9",
"# 	c #FBFAF9",
"$ 	c #FAFAF8",
"% 	c #FAF9F8",
"& 	c #F9F9F7",
"* 	c #EBEAE6",
"= 	c #6A675E",
"- 	c #FCFCFA",
"; 	c #EDEAE0",
"> 	c #EBE8DE",
", 	c #E9E6DC",
"' 	c #EAE7E0",
") 	c #E3E0D6",
"! 	c #E0DDD3",
"~ 	c #DDDAD0",
"{ 	c #DAD7CD",
"] 	c #CDCAC0",
"^ 	c #706D63",
"/ 	c #FCFBFA",
"( 	c #EFEEEE",
"_ 	c #F4F4F4",
": 	c #EAE9E6",
"< 	c #DFDCD2",
"[ 	c #DBD8CE",
"} 	c #6F6C62",
"| 	c #EAE7DD",
"1 	c #BFBCBC",
"2 	c #595756",
"3 	c #5D5B59",
"4 	c #E1DED4",
"5 	c #D9D6CC",
"6 	c #CCC9BF",
"7 	c #E7E4DA",
"8 	c #D0CDC4",
"9 	c #6D6B69",
"0 	c #CFCCC4",
"a 	c #D8D5CB",
"b 	c #D5D2C8",
"c 	c #C5C2B8",
"d 	c #E8E5DB",
"e 	c #E2E0D6",
"f 	c #E1DFD5",
"g 	c #DCD9CF",
"h 	c #C4C1B7",
"i 	c #FBFBFA",
"j 	c #F9F9F5",
"k 	c #F8F8F4",
"l 	c #F1F0EC",
"m 	c #ECECE8",
"n 	c #EEEDE8",
"o 	c #F5F4F0",
"p 	c #D7D4CA",
"q 	c #D4D1C7",
"r 	c #C3C0B6",
"s 	c #6E6B61",
"t 	c #FBFAF7",
"u 	c #E6E3D9",
"v 	c #E4E1D7",
"w 	c #EFEEEA",
"x 	c #AAAAAA",
"y 	c #999999",
"z 	c #9D9D9D",
"A 	c #9B9B9B",
"B 	c #939393",
"C 	c #A2A2A2",
"D 	c #A6A6A6",
"E 	c #918F88",
"F 	c #D1CEC4",
"G 	c #C2BFB5",
"H 	c #E5E4DF",
"I 	c #9F9F9F",
"J 	c #434241",
"K 	c #E0E0E0",
"L 	c #969696",
"M 	c #DFDFDF",
"N 	c #A7A7A7",
"O 	c #504F4B",
"P 	c #D0CDC3",
"Q 	c #C0BDB3",
"R 	c #6D6A60",
"S 	c #FAFAF4",
"T 	c #DEDBD1",
"U 	c #E4E2DD",
"V 	c #323130",
"W 	c #E4E4E4",
"X 	c #989898",
"Y 	c #252423",
"Z 	c #A5A5A5",
"` 	c #4E4D49",
" .	c #CECBC1",
"..	c #BFBCB2",
"+.	c #6B685E",
"@.	c #FAFAF3",
"#.	c #E7E5DE",
"$.	c #A5A4A4",
"%.	c #9E9E9E",
"&.	c #9C9C9C",
"*.	c #A09F9F",
"=.	c #A4A4A4",
"-.	c #4E4C48",
";.	c #FAF7F0",
">.	c #E1DFD7",
",.	c #ADADAB",
"'.	c #4A4A49",
").	c #1A1A19",
"!.	c #464646",
"~.	c #A3A2A1",
"{.	c #76746E",
"].	c #B6B3A9",
"^.	c #6C695F",
"/.	c #D6D3C9",
"(.	c #CFCCC2",
"_.	c #9B9892",
":.	c #7C7C7B",
"<.	c #DADADA",
"[.	c #B7B7B7",
"}.	c #51504C",
"|.	c #FAF8F1",
"1.	c #D3D0C6",
"2.	c #D2CFC5",
"3.	c #9F9E9C",
"4.	c #797874",
"5.	c #71706A",
"6.	c #787772",
"7.	c #888783",
"8.	c #CBC8BE",
"9.	c #B5B2A8",
"0.	c #FAFAF5",
"a.	c #CFCDC3",
"b.	c #CFCCC3",
"c.	c #E2DFD7",
"d.	c #F8F8F8",
"e.	c #D8D5CE",
"f.	c #CAC7BD",
"g.	c #B4B1A7",
"h.	c #B9B7B6",
"i.	c #646261",
"j.	c #7F7F7F",
"k.	c #FBFAF8",
"l.	c #ADAAA2",
"m.	c #999792",
"n.	c #69665C",
"o.	c #C7C6C1",
"p.	c #827F75",
"q.	c #817E74",
"r.	c #7E7B71",
"s.	c #7C796F",
"t.	c #716E64",
"u.	c #646157",
"      . + @ @ @ @ # # $ $ $ % & * =     ",
"      - ; ; ; > > , ' ' ) ! ~ { ] ^     ",
"      / ; ; ; > > ( _ : ) < [ { ] }     ",
"      / ; ; ; | | 1 2 3 4 < [ 5 6 }     ",
"      / | | | 7 < 8 9 0 ~ 5 a b c }     ",
"      / | , d 7 4 4 e f ~ g 5 b h }     ",
"      i d 7 7 j k l m m n o p q r s     ",
"      t u v w x y z A B C D E F G s     ",
"      t v ) H I J K L J M N O P Q R     ",
"      S < T U C V W X Y M Z `  ...+.    ",
"      @.~ { #.$.%.&.&.&.*.=.-. ...+.    ",
"      ;.p q >.,.&.'.).!.&.~.{.] ].^.    ",
"      @./.b (._.&.:.<.[.&.}.6 6 ].^.    ",
"      |.1.2.2.P 3.4.5.6.7.6 6 8.9.^.    ",
"      0.2.2.2.F 5 T a.a.b.6 6 8.9.^.    ",
"      @.P P P (.b c.d.e.6 8.8.f.g.^.    ",
"      0.P P (. . .h.2 i.8.8.f.f.g.^.j.j.",
"      k.P P (. .b l.2 m.P 8.f.f.g.^.j.j.",
"      k.P P (. .b q 6 6 6 f.f.f.g.n.j.  ",
"      o.p.p.p.q.q.p.p.q.q.r.s.s.t.u.    "};
