/* XPM */
static char * icon_folder_closed_20x20_xpm[] = {
"20 20 90 1",
" 	c None",
".	c #85752A",
"+	c #88782B",
"@	c #87772A",
"#	c #80722F",
"$	c #DBCF94",
"%	c #D5C57C",
"&	c #D1C071",
"*	c #D8CA87",
"=	c #837533",
"-	c #DDD199",
";	c #D3C378",
">	c #D7C984",
",	c #D4C479",
"'	c #D6C781",
")	c #807230",
"!	c #746624",
"~	c #736523",
"{	c #736623",
"]	c #6D6121",
"^	c #8A792B",
"/	c #F4F0DD",
"(	c #E9E1BB",
"_	c #E4DBAE",
":	c #EBE3BF",
"<	c #E7DEB5",
"[	c #EBE5C3",
"}	c #EBE5C5",
"|	c #E6DDB2",
"1	c #E9E1BC",
"2	c #E5DCB1",
"3	c #E7E0B8",
"4	c #D6C780",
"5	c #DCCF92",
"6	c #D7C780",
"7	c #D5C67E",
"8	c #D1C172",
"9	c #D8CA86",
"0	c #D9CB8A",
"a	c #D8C983",
"b	c #CEBC69",
"c	c #726523",
"d	c #DFD49D",
"e	c #D4C57C",
"f	c #D5C67C",
"g	c #D2C274",
"h	c #D2C375",
"i	c #D1C070",
"j	c #D0BF6D",
"k	c #CEBC66",
"l	c #726423",
"m	c #DDD197",
"n	c #D2C275",
"o	c #D3C377",
"p	c #D7C883",
"q	c #D3C478",
"r	c #D2C173",
"s	c #D2C273",
"t	c #D0C06E",
"u	c #D1C06E",
"v	c #D6C67D",
"w	c #CAB861",
"x	c #DACD8F",
"y	c #D3C479",
"z	c #D1C06F",
"A	c #D0BF6E",
"B	c #CFBD68",
"C	c #D2C172",
"D	c #D0BF6C",
"E	c #6C5F21",
"F	c #DFD39B",
"G	c #D4C47A",
"H	c #D1C171",
"I	c #CFBE6A",
"J	c #D3C275",
"K	c #DCD093",
"L	c #D4C57B",
"M	c #D0BE6B",
"N	c #D3C376",
"O	c #CFBD6B",
"P	c #6F6122",
"Q	c #7F7F7F",
"R	c #CFBD69",
"S	c #CEBD69",
"T	c #CBB964",
"U	c #675B1F",
"V	c #756724",
"W	c #6E6121",
"X	c #716322",
"Y	c #6B5E20",
"                    ",
"                    ",
"                    ",
"    .+@.            ",
"   #$%&*=           ",
"  @-*;>,')!~~{{~]   ",
"  ^/(_:<[}|123_4!   ",
"  ^<5%4*6>7890abc   ",
"  ^de7fg;,hhi%jkl   ",
"  ^mnhnopiq8,orkl   ",
"  ^dsenn%ntiurvwl   ",
"  ^xysyzAygiBCDkE   ",
"  ^FGgjtHgsIjJskl   ",
"  ^KGHyILz,tHMNOPQQQ",
"  ^8RSSkkkkkkkkTPQQ ",
"  UVWWWXXXXXXXXWYQ  ",
"                    ",
"                    ",
"                    ",
"                    "};
