/* XPM */
static char * icon_socket_32x32_xpm[] = {
"32 32 212 2",
"  	c None",
". 	c #FFFFFF",
"+ 	c #FAF9F7",
"@ 	c #FAF9F6",
"# 	c #F9F9F6",
"$ 	c #F9F8F6",
"% 	c #F8F8F4",
"& 	c #F8F7F1",
"* 	c #F7F6EE",
"= 	c #F6F5EB",
"- 	c #F6F4EA",
"; 	c #F5F2E8",
"> 	c #EFECE2",
", 	c #CCC9BF",
"' 	c #FBFBF9",
") 	c #EEEBE1",
"! 	c #EDEAE0",
"~ 	c #ECE9DF",
"{ 	c #EBE8DE",
"] 	c #E8E5DB",
"^ 	c #E7E4DA",
"/ 	c #E4E1D7",
"( 	c #E2DFD5",
"_ 	c #E1DED4",
": 	c #DEDBD1",
"< 	c #DDDAD0",
"[ 	c #DBD8CE",
"} 	c #CECBC1",
"| 	c #89867C",
"1 	c #E9E6DC",
"2 	c #E3E0D6",
"3 	c #E0DDD3",
"4 	c #DCD9CF",
"5 	c #DAD7CD",
"6 	c #CDCAC0",
"7 	c #88857B",
"8 	c #FCFCFC",
"9 	c #C6C4C2",
"0 	c #C7C4C1",
"a 	c #87847A",
"b 	c #FBFAF9",
"c 	c #C2C1BF",
"d 	c #595756",
"e 	c #8B8985",
"f 	c #DFDCD2",
"g 	c #EAE7DD",
"h 	c #BBB8B5",
"i 	c #93908C",
"j 	c #BBB9B4",
"k 	c #D9D6CC",
"l 	c #868379",
"m 	c #FBFAF8",
"n 	c #E5E2D8",
"o 	c #D8D5CB",
"p 	c #CBC8BE",
"q 	c #E6E3D9",
"r 	c #D6D3C9",
"s 	c #D5D2C8",
"t 	c #C5C2B8",
"u 	c #E5E2D9",
"v 	c #E6E3DA",
"w 	c #E3E1D7",
"x 	c #D7D4CA",
"y 	c #C4C1B7",
"z 	c #858278",
"A 	c #FAFAF8",
"B 	c #F9F9F5",
"C 	c #F5F5EE",
"D 	c #F1F0EC",
"E 	c #ECECE8",
"F 	c #EFEDEA",
"G 	c #EEEDE8",
"H 	c #F5F4F0",
"I 	c #E5E3DA",
"J 	c #D4D1C7",
"K 	c #C3C0B6",
"L 	c #848177",
"M 	c #FBFBF8",
"N 	c #D9D8D8",
"O 	c #A6A5A5",
"P 	c #A6A5A4",
"Q 	c #A7A5A5",
"R 	c #AAA8A8",
"S 	c #ADABAB",
"T 	c #ABA9A8",
"U 	c #D1CEC4",
"V 	c #838076",
"W 	c #FAF9F5",
"X 	c #C3C2C2",
"Y 	c #676765",
"Z 	c #1F1F1E",
"` 	c #959492",
" .	c #959393",
"..	c #1D1C1B",
"+.	c #5F5E5D",
"@.	c #A4A2A2",
"#.	c #828180",
"$.	c #C9C6BC",
"%.	c #D3D0C6",
"&.	c #C2BFB5",
"*.	c #F7F6F4",
"=.	c #BBB9B9",
"-.	c #595958",
";.	c #B7B7B6",
">.	c #757575",
",.	c #222120",
"'.	c #989898",
").	c #AFAEAD",
"!.	c #81807F",
"~.	c #C7C4BA",
"{.	c #D2CFC5",
"].	c #D0CDC3",
"^.	c #C0BDB3",
"/.	c #817E74",
"(.	c #F9F9F2",
"_.	c #F2F2EE",
":.	c #B3B2B2",
"<.	c #A0A0A0",
"[.	c #F6F6F6",
"}.	c #F8F8F8",
"|.	c #A9A9A9",
"1.	c #CACACA",
"2.	c #F9F9F9",
"3.	c #A2A0A0",
"4.	c #898988",
"5.	c #C1BEB4",
"6.	c #CFCCC2",
"7.	c #7B786E",
"8.	c #F9F8F0",
"9.	c #F3F0EB",
"0.	c #B1AFAF",
"a.	c #A7A7A7",
"b.	c #9D9D9D",
"c.	c #9C9C9C",
"d.	c #A6A6A6",
"e.	c #A09F9F",
"f.	c #838281",
"g.	c #BFBCB2",
"h.	c #7A776D",
"i.	c #F8F8EE",
"j.	c #F6F5EF",
"k.	c #ACACAC",
"l.	c #1A1A19",
"m.	c #6B6B6A",
"n.	c #A0A09F",
"o.	c #868482",
"p.	c #BEBBB1",
"q.	c #F8F5EB",
"r.	c #B6B3B0",
"s.	c #9B9B9B",
"t.	c #A1A1A1",
"u.	c #8E8D8D",
"v.	c #F0F0EF",
"w.	c #F4F4F4",
"x.	c #A1A1A0",
"y.	c #98948D",
"z.	c #B8B5AB",
"A.	c #7E7B71",
"B.	c #A9A6A3",
"C.	c #A2A2A2",
"D.	c #9E9E9E",
"E.	c #9D9C9C",
"F.	c #959594",
"G.	c #8B8987",
"H.	c #B6B3A9",
"I.	c #CAC7BD",
"J.	c #F9F8EF",
"K.	c #9C9A99",
"L.	c #9A9999",
"M.	c #979696",
"N.	c #949393",
"O.	c #8C8A8A",
"P.	c #B9B6AD",
"Q.	c #F8F7ED",
"R.	c #D4D1C8",
"S.	c #B7B4AB",
"T.	c #B1AEA5",
"U.	c #AEABA2",
"V.	c #BCB9AF",
"W.	c #D1CEC5",
"X.	c #F8F6EC",
"Y.	c #B5B2A8",
"Z.	c #7D7A70",
"`.	c #B4B1A7",
" +	c #7C796F",
".+	c #A2A09E",
"++	c #B5B2AF",
"@+	c #F9F8F1",
"#+	c #83807E",
"$+	c #615F5D",
"%+	c #7F7F7F",
"&+	c #ABA8A1",
"*+	c #72706D",
"=+	c #98958E",
"-+	c #747167",
";+	c #BDBAB0",
">+	c #BAB7AD",
",+	c #B3B0A6",
"'+	c #AEABA1",
")+	c #8C897F",
"!+	c #646157",
"~+	c #9F9C92",
"{+	c #757268",
"]+	c #706D63",
"^+	c #67645A",
"/+	c #5C594F",
"(+	c #5E5B51",
"_+	c #605D53",
":+	c #636056",
"<+	c #656258",
"[+	c #625F55",
"}+	c #69665C",
"                                                                ",
"            . . + + + @ @ # $ $ % % & & * * = - ; > ,           ",
"            ' ) ) ! ! ~ ~ { { ] ^ ^ / / ( _ : < [ } |           ",
"            ' ) ! ! ! ~ { { { 1 ^ ^ 2 2 ( 3 < 4 5 6 7           ",
"            ' ! ! ! ! ~ { { { 8 9 0 2 2 _ 3 4 4 5 6 a           ",
"            b ! ! ! ! { { { 1 c d e 2 2 _ f [ 4 5 6 a           ",
"            b ! ! ! ! { g g 1 h i j ( _ f f [ [ k , l           ",
"            m ~ ~ ~ { g g ] ^ n / / 3 3 : < 5 k o p l           ",
"            m ~ g g g ] ^ ^ q 2 2 2 f < 4 k o r s t l           ",
"            m { g 1 ] ^ ^ q u v w f < 4 [ k x r s y z           ",
"            A 1 ] ^ ^ ~ B % C D E F G H I x s J J K L           ",
"            A ] q q n M N O P Q R R S S T U J J J K V           ",
"            W n q / / + X Y Z `  ...+.@.#.$.%.%.U &.V           ",
"            W n / 2 ( *.=.-...;.>.,.'.).!.~.{.U ].^./.          ",
"            (.( ( _ 3 _.:.<.[.}.|.1.2.3.4.5.U ].6.^.7.          ",
"            8.3 f : 4 9.0.a.|.b.c.d.e.e.f.5.6.6.} g.h.          ",
"            i.f < < 4 j.0.d.k.,.l.m.n.3.o.p.6.} } g.h.          ",
"            q.[ k k k f r.s.t.u.v.w.x. .y.$.6 6 6 z.A.          ",
"            q.k x x x s ].B.C.D.c.E.F.G.H.I.6 6 6 H.A.          ",
"            J.x r r s s J ~.K.L.M.N.O.P.p 6 , , , H.A.          ",
"            Q.r s s J R.%.{.^.S.T.U.V.I.W., , , , H.A.          ",
"            X.%.%.{.{.U U U U } } 6 6 , , , p p p Y.Z.          ",
"            (.%.{.{.{.U U ].} } 6 6 , , , , p p p Y.Z.          ",
"            J.%.{.].].6.6.} } 6 6 6 , , p p p p p `. +          ",
"            J.U ].].].6.6.} } 2..+++, , p p p p I.`. +          ",
"            @+U ].].6.6.} } } #+d $+p p p p I.I.I.`. +%+%+%+%+%+",
"            @ U ].].6.6.} } 6 &+*+=+p p p p I.I.I.`. +%+%+%+%+  ",
"            @ U ].].6.6.} } 6 6 , , p p p I.I.I.I.`.-+%+%+%+    ",
"            @ U ].].6.6.} } 6 6 , , p p p I.I.I.I.`.-+%+%+      ",
"            / g.p.p.;+;+V.V.y g.g.g.>+>+Y.,+'+'+'+)+!+%+        ",
"            ~+7.h.{+-+]+^+^+/+(+(+(+_+_+:+!+<+<+<+[+}+          ",
"                                                                "};
