/* XPM */
static char * icon_drive_root2_20x20_xpm[] = {
"20 20 88 1",
" 	c None",
".	c #5A5A5A",
"+	c #5E5E5E",
"@	c #696969",
"#	c #525252",
"$	c #4D4D4D",
"%	c #484848",
"&	c #3F3F3F",
"*	c #2C2C2C",
"=	c #242424",
"-	c #070707",
";	c #9A9A9A",
">	c #989898",
",	c #969696",
"'	c #949494",
")	c #939393",
"!	c #737373",
"~	c #191919",
"{	c #010101",
"]	c #4A4A4A",
"^	c #818181",
"/	c #6F6F6F",
"(	c #626262",
"_	c #636363",
":	c #5C5C5C",
"<	c #252525",
"[	c #101010",
"}	c #494949",
"|	c #909090",
"1	c #9F9F9F",
"2	c #3B3B3B",
"3	c #0F0F0F",
"4	c #151515",
"5	c #3C3C3C",
"6	c #848484",
"7	c #121212",
"8	c #434343",
"9	c #393939",
"0	c #161616",
"a	c #828282",
"b	c #3A3A3A",
"c	c #838383",
"d	c #353535",
"e	c #7D7D7D",
"f	c #7B7B7B",
"g	c #363636",
"h	c #7C7C7C",
"i	c #454545",
"j	c #0B0B0B",
"k	c #585858",
"l	c #656565",
"m	c #4B4B4B",
"n	c #181818",
"o	c #373737",
"p	c #707070",
"q	c #878787",
"r	c #747474",
"s	c #424242",
"t	c #015709",
"u	c #00FF26",
"v	c #6C6C6C",
"w	c #797979",
"x	c #313131",
"y	c #031E02",
"z	c #05780B",
"A	c #6E6E6E",
"B	c #7F7F7F",
"C	c #5F5F5F",
"D	c #272727",
"E	c #221814",
"F	c #F23D06",
"G	c #7E2D09",
"H	c #343434",
"I	c #777777",
"J	c #464646",
"K	c #282828",
"L	c #292929",
"M	c #F80303",
"N	c #563838",
"O	c #0E0E0E",
"P	c #606060",
"Q	c #060606",
"R	c #303030",
"S	c #2E2E2E",
"T	c #2A2A2A",
"U	c #1C1C1C",
"V	c #171717",
"W	c #040404",
"      .+@#$%&*=-    ",
"     .;>,'))))!~{   ",
"    ]>^/((((_:<[{   ",
"    }|1)))))@234{   ",
"    56788888^930{   ",
"    5a733333^b30{   ",
"    5c488888^b30{   ",
"    de033333^b30{   ",
"    df088888^b30{   ",
"    ghij333)8b30{   ",
"    bhi9))))8b30{   ",
"    bhk_l_mnno30{   ",
"    bhpqrsntuv30{   ",
"    bw_i8xnyzA34{B  ",
"    bwC88DEFGA34{BB ",
"    HICJ8Kn88A34{BBB",
"    HwCJ8LnMNB3O{BBB",
"    HIPi8Dn^)}3Q{BB ",
"    R:STLU34V4-{BB  ",
"    WW{{{{{{{{{B    "};
