/* XPM */
static char * icon_planet_32x32_xpm[] = {
"32 32 778 2",
"  	c None",
". 	c #808FA4",
"+ 	c #9BA8C8",
"@ 	c #9D93DA",
"# 	c #9181D5",
"$ 	c #B1A7E0",
"% 	c #9482DB",
"& 	c #705FB9",
"* 	c #5D5398",
"= 	c #5A6286",
"- 	c #C0CBD9",
"; 	c #DCE7F6",
"> 	c #DCDEF7",
", 	c #CCC4F3",
"' 	c #CFBFF2",
") 	c #D7C9F4",
"! 	c #D6C7F6",
"~ 	c #C8B9F4",
"{ 	c #DDDCF9",
"] 	c #DBD9F7",
"^ 	c #DCE0F3",
"/ 	c #C0C5DB",
"( 	c #666993",
"_ 	c #C0CBEE",
": 	c #B3BEF0",
"< 	c #C2CCF3",
"[ 	c #C5CFF4",
"} 	c #D5D9F8",
"| 	c #E0DAFA",
"1 	c #E7D6FA",
"2 	c #E4D5F9",
"3 	c #DBD0F9",
"4 	c #E3E2FB",
"5 	c #EBF3FB",
"6 	c #E0E3F9",
"7 	c #EEF8FC",
"8 	c #EEF9FD",
"9 	c #ECF9FC",
"0 	c #D4E3F6",
"a 	c #8896B5",
"b 	c #CEE1F1",
"c 	c #D4E1F7",
"d 	c #C8D5F4",
"e 	c #D4E3F8",
"f 	c #DBE8FB",
"g 	c #E3EBFD",
"h 	c #E9E9FD",
"i 	c #ECE3FD",
"j 	c #E9E1FD",
"k 	c #E0DCFC",
"l 	c #E1E3FB",
"m 	c #EBF6FB",
"n 	c #EAF5FB",
"o 	c #EDF9FD",
"p 	c #ECF9FD",
"q 	c #EAF8FC",
"r 	c #E7F7FD",
"s 	c #D8ECFA",
"t 	c #8B9BD1",
"u 	c #A0B5D4",
"v 	c #CDE2F8",
"w 	c #CEDEF7",
"x 	c #DAEAF9",
"y 	c #E8F5FC",
"z 	c #EDF7FE",
"A 	c #ECF4FE",
"B 	c #EAEFFE",
"C 	c #E7EAFE",
"D 	c #E1E2FE",
"E 	c #D8DAFD",
"F 	c #DDE8FA",
"G 	c #EDFAFB",
"H 	c #EAF6FC",
"I 	c #E4EFFB",
"J 	c #E3EFFB",
"K 	c #E9F8FB",
"L 	c #D8E6FB",
"M 	c #CEDDFA",
"N 	c #CDE0FB",
"O 	c #CADEF9",
"P 	c #8DA0E4",
"Q 	c #97B8DA",
"R 	c #AFC5F3",
"S 	c #BACFF5",
"T 	c #D1E4FA",
"U 	c #EAF7FD",
"V 	c #F2FAFD",
"W 	c #F2F8FE",
"X 	c #EBF2FE",
"Y 	c #E0E7FE",
"Z 	c #D5DDFE",
"` 	c #CCD5FD",
" .	c #DCE7FC",
"..	c #E5F0FA",
"+.	c #D1DDFC",
"@.	c #B1BDFD",
"#.	c #B9C5FB",
"$.	c #C9D5FA",
"%.	c #D6E6FA",
"&.	c #C7D3FA",
"*.	c #BCC9FB",
"=.	c #CCDEFB",
"-.	c #B9CDF9",
";.	c #BCD6F9",
">.	c #93AFE7",
",.	c #7897BC",
"'.	c #9DB5F1",
").	c #AAC1F4",
"!.	c #CFE2FB",
"~.	c #E5F2FE",
"{.	c #EBF5FF",
"].	c #EAF4FE",
"^.	c #E5F0FE",
"/.	c #DAE8FE",
"(.	c #CBDAFE",
"_.	c #C0D0FE",
":.	c #B8C9FD",
"<.	c #D1E1FB",
"[.	c #CADBFB",
"}.	c #ACBEFC",
"|.	c #B8C6FB",
"1.	c #A6B6FC",
"2.	c #8496FE",
"3.	c #8C9DFD",
"4.	c #A1B3F9",
"5.	c #B1C2FB",
"6.	c #C8DDFA",
"7.	c #D9F3FB",
"8.	c #A5BEF9",
"9.	c #C6EAFB",
"0.	c #77A4D5",
"a.	c #8CA9EA",
"b.	c #9EB8F3",
"c.	c #BCD3F9",
"d.	c #DEECFE",
"e.	c #E6F2FE",
"f.	c #E2EFFF",
"g.	c #DCECFE",
"h.	c #D4E7FE",
"i.	c #CBE0FE",
"j.	c #BED6FE",
"k.	c #B4CEFE",
"l.	c #ACC8FD",
"m.	c #CFE1FA",
"n.	c #D0E1FA",
"o.	c #D9E7FA",
"p.	c #F0FAF9",
"q.	c #E4EFFA",
"r.	c #AFC2FB",
"s.	c #8FA7FB",
"t.	c #AABDFB",
"u.	c #9BB0F9",
"v.	c #A3B9F9",
"w.	c #D2ECFB",
"x.	c #C9E8FB",
"y.	c #C8EBFB",
"z.	c #B2E4F8",
"A.	c #7190E2",
"B.	c #8DABF0",
"C.	c #B0CCF8",
"D.	c #CCE3FD",
"E.	c #DDEDFF",
"F.	c #D9ECFF",
"G.	c #CFE7FF",
"H.	c #CBE6FE",
"I.	c #C3E3FE",
"J.	c #B8DDFE",
"K.	c #A9D6FE",
"L.	c #A2D0FC",
"M.	c #C7E2F9",
"N.	c #EFF9F8",
"O.	c #F3FBF9",
"P.	c #F3FBF8",
"Q.	c #F2FBF8",
"R.	c #F0FBF9",
"S.	c #EFFAF9",
"T.	c #ECF8F8",
"U.	c #EAF9F9",
"V.	c #E6F8F8",
"W.	c #C5DCF9",
"X.	c #AECAF9",
"Y.	c #D0EEFA",
"Z.	c #B7D8F8",
"`.	c #BBE7F9",
" +	c #93D1F7",
".+	c #2D417F",
"++	c #7E9CEE",
"@+	c #96B7F4",
"#+	c #B9D9FC",
"$+	c #CBE8FE",
"%+	c #D1EBFF",
"&+	c #C8E5FF",
"*+	c #C3E4FF",
"=+	c #BEE5FE",
"-+	c #B1E1FE",
";+	c #A3DCFE",
">+	c #94D6FD",
",+	c #BBE1F9",
"'+	c #F3FAF8",
")+	c #F5FCF7",
"!+	c #F5FCF8",
"~+	c #F3FBF7",
"{+	c #F0FBF8",
"]+	c #EFFAF8",
"^+	c #EBF9F9",
"/+	c #E8F8F8",
"(+	c #E0F4F8",
"_+	c #BEDAF7",
":+	c #CCECF7",
"<+	c #C8EEF9",
"[+	c #B7E3F8",
"}+	c #A7D3F5",
"|+	c #3359AB",
"1+	c #5579C8",
"2+	c #88AEF1",
"3+	c #A1C8F8",
"4+	c #B5E1FE",
"5+	c #BBE8FE",
"6+	c #B7E2FF",
"7+	c #B4E0FF",
"8+	c #B1E3FF",
"9+	c #A7E2FE",
"0+	c #94DEFE",
"a+	c #8ADBFE",
"b+	c #8EDBFD",
"c+	c #D8F1F8",
"d+	c #F5FBF6",
"e+	c #F5FBF7",
"f+	c #F4FBF7",
"g+	c #F3FAF6",
"h+	c #F2FBF6",
"i+	c #F1FCF7",
"j+	c #EFFBF7",
"k+	c #EDF9F7",
"l+	c #E9F8F7",
"m+	c #E4F7F7",
"n+	c #DCF4F7",
"o+	c #ADD3F4",
"p+	c #C3EAF8",
"q+	c #BDEDFA",
"r+	c #A8D9F6",
"s+	c #6B8FD9",
"t+	c #5A86E4",
"u+	c #8BB8F4",
"v+	c #A0CFFB",
"w+	c #ABE0FE",
"x+	c #A9E2FE",
"y+	c #A2DDFF",
"z+	c #A1E0FF",
"A+	c #9BE0FF",
"B+	c #90DEFE",
"C+	c #84DDFE",
"D+	c #7FDCFE",
"E+	c #8CDCFB",
"F+	c #DCF2F6",
"G+	c #F5FCF6",
"H+	c #F6FCF6",
"I+	c #F4FBF5",
"J+	c #F2FCF6",
"K+	c #F0FCF7",
"L+	c #EDFAF7",
"M+	c #EAF8F7",
"N+	c #E5F6F7",
"O+	c #DDF5F7",
"P+	c #C2E4F6",
"Q+	c #B0DAF5",
"R+	c #B4E6F9",
"S+	c #99CCF4",
"T+	c #75A1EA",
"U+	c #2659A4",
"V+	c #5E91ED",
"W+	c #87BCF7",
"X+	c #97D1FD",
"Y+	c #9ADBFE",
"Z+	c #94DCFE",
"`+	c #8EDCFF",
" @	c #8BDEFF",
".@	c #85DDFF",
"+@	c #7EDDFE",
"@@	c #77E0FE",
"#@	c #72E0FE",
"$@	c #86E1FB",
"%@	c #E1F6F4",
"&@	c #F4FCF4",
"*@	c #F5FDF5",
"=@	c #F5FDF4",
"-@	c #F5FCF4",
";@	c #E9F7F5",
">@	c #D9F1F6",
",@	c #EEFAF6",
"'@	c #EBF9F6",
")@	c #E4F7F6",
"!@	c #DDF6F6",
"~@	c #D2F3F7",
"{@	c #A7D8F5",
"]@	c #418CF3",
"^@	c #366FF6",
"/@	c #528BEC",
"(@	c #2D55B6",
"_@	c #235EB6",
":@	c #73BBF4",
"<@	c #88C9F9",
"[@	c #8BCFFD",
"}@	c #8CD7FE",
"|@	c #88D9FE",
"1@	c #84DCFF",
"2@	c #80DDFF",
"3@	c #7ADDFF",
"4@	c #73E0FE",
"5@	c #68E1FE",
"6@	c #5DDEFE",
"7@	c #57D9FD",
"8@	c #91E4F8",
"9@	c #F3FCF4",
"0@	c #F0FAF4",
"a@	c #EEFAF5",
"b@	c #EAF9F5",
"c@	c #DDF6F5",
"d@	c #D2F3F6",
"e@	c #ADE8F4",
"f@	c #6EC3F4",
"g@	c #3B82F9",
"h@	c #3273EF",
"i@	c #2A64D9",
"j@	c #2772D1",
"k@	c #7ED6F9",
"l@	c #9AE3F9",
"m@	c #93D9FA",
"n@	c #81D5FD",
"o@	c #7AD7FE",
"p@	c #74D8FF",
"q@	c #6FD8FF",
"r@	c #68DCFF",
"s@	c #5CDEFE",
"t@	c #4CDDFE",
"u@	c #42DAFE",
"v@	c #39D5FE",
"w@	c #36D4FE",
"x@	c #87E5FA",
"y@	c #B0EEF6",
"z@	c #A4E9F7",
"A@	c #7DDDFA",
"B@	c #86DCF9",
"C@	c #CAF0F5",
"D@	c #EAF9F4",
"E@	c #F0FBF4",
"F@	c #EDFAF4",
"G@	c #E9F8F5",
"H@	c #E3F6F5",
"I@	c #DBF5F5",
"J@	c #C7F0F4",
"K@	c #A7E8F2",
"L@	c #61BEF8",
"M@	c #1B80FB",
"N@	c #0C6FF2",
"O@	c #015CE6",
"P@	c #1F77D3",
"Q@	c #78D7FA",
"R@	c #98E4F9",
"S@	c #ABE8F7",
"T@	c #8DDCFB",
"U@	c #6ED4FE",
"V@	c #64D3FF",
"W@	c #5BD3FF",
"X@	c #4FD7FF",
"Y@	c #43D8FE",
"Z@	c #3AD8FE",
"`@	c #36D7FE",
" #	c #32D6FE",
".#	c #2FD6FE",
"+#	c #2CD4FE",
"@#	c #29D2FE",
"##	c #26CFFE",
"$#	c #24CCFE",
"%#	c #26C9FE",
"&#	c #3ECCFC",
"*#	c #BDECF4",
"=#	c #F0FBF3",
"-#	c #ECFAF3",
";#	c #E8F8F4",
">#	c #E2F6F4",
",#	c #C9EEF5",
"'#	c #B9ECF3",
")#	c #A4E7F2",
"!#	c #1FA0FC",
"~#	c #0487FC",
"{#	c #0077F3",
"]#	c #0064E7",
"^#	c #1C87D9",
"/#	c #6DD8FA",
"(#	c #90E2F9",
"_#	c #A4E7F6",
":#	c #AAE6F6",
"<#	c #80D8FA",
"[#	c #54CDFD",
"}#	c #41CDFE",
"|#	c #33D0FF",
"1#	c #2ED3FE",
"2#	c #2DD5FE",
"3#	c #2CD7FE",
"4#	c #2AD8FE",
"5#	c #28D7FE",
"6#	c #25D7FE",
"7#	c #23D6FE",
"8#	c #1FD3FE",
"9#	c #1CD1FE",
"0#	c #19CDFF",
"a#	c #16CAFF",
"b#	c #AFEBF5",
"c#	c #EEFAF2",
"d#	c #EAF9F3",
"e#	c #E5F7F3",
"f#	c #DCF5F3",
"g#	c #BAEAF1",
"h#	c #6DCFF6",
"i#	c #68CCF7",
"j#	c #0199FE",
"k#	c #0091FC",
"l#	c #0080F3",
"m#	c #006EE7",
"n#	c #1584DA",
"o#	c #5ED5FA",
"p#	c #86E0F9",
"q#	c #9BE5F7",
"r#	c #B2EBF5",
"s#	c #BAECF4",
"t#	c #A4E5F6",
"u#	c #5FD7FB",
"v#	c #28D0FF",
"w#	c #27D4FE",
"x#	c #27D7FE",
"y#	c #26D9FE",
"z#	c #24DAFE",
"A#	c #23DBFE",
"B#	c #21DAFE",
"C#	c #1ED9FE",
"D#	c #1BD6FE",
"E#	c #19D4FE",
"F#	c #16D1FF",
"G#	c #14CFFF",
"H#	c #62DCFA",
"I#	c #E1F7F2",
"J#	c #E7F8F2",
"K#	c #CBF0F1",
"L#	c #A7E6F2",
"M#	c #A9E7F2",
"N#	c #36BBFA",
"O#	c #00A0FE",
"P#	c #0097FB",
"Q#	c #0086F3",
"R#	c #0074E7",
"S#	c #0B6CBF",
"T#	c #4ACCF9",
"U#	c #77DBF7",
"V#	c #8DE1F6",
"W#	c #A6E6F5",
"X#	c #B5EAF4",
"Y#	c #C1EDF3",
"Z#	c #C5EEF3",
"`#	c #29D4FE",
" $	c #22D6FE",
".$	c #21DCFE",
"+$	c #1EDDFE",
"@$	c #1DDDFE",
"#$	c #1BDDFE",
"$$	c #19DCFE",
"%$	c #17DAFE",
"&$	c #15D9FE",
"*$	c #13D7FF",
"=$	c #11D4FF",
"-$	c #1BD4FE",
";$	c #A1ECF4",
">$	c #E0F6F0",
",$	c #D7F4EF",
"'$	c #C8F1F0",
")$	c #ADE9F1",
"!$	c #A5E7F2",
"~$	c #37C0F8",
"{$	c #00A8FE",
"]$	c #009EFB",
"^$	c #008EF2",
"/$	c #0073DC",
"($	c #03539E",
"_$	c #39C0F3",
":$	c #6CD9F6",
"<$	c #7EDCF5",
"[$	c #99E2F5",
"}$	c #ABE7F5",
"|$	c #BAEBF4",
"1$	c #AEEAF5",
"2$	c #1CD8FE",
"3$	c #1CDCFE",
"4$	c #1AE0FE",
"5$	c #19E0FE",
"6$	c #17E0FE",
"7$	c #15E0FE",
"8$	c #14DEFE",
"9$	c #13DDFE",
"0$	c #12DBFF",
"a$	c #10D9FF",
"b$	c #0ED6FE",
"c$	c #7CE7F6",
"d$	c #DCF5F0",
"e$	c #D4F4F0",
"f$	c #C6F0F0",
"g$	c #BBEDF1",
"h$	c #8EE2F3",
"i$	c #3BC6F7",
"j$	c #04AFFC",
"k$	c #01A5F8",
"l$	c #0092F0",
"m$	c #0063B8",
"n$	c #1BA5E9",
"o$	c #62D6F5",
"p$	c #74DBF5",
"q$	c #89DDF5",
"r$	c #9CE3F4",
"s$	c #ADE8F1",
"t$	c #6ADEF7",
"u$	c #17D7FE",
"v$	c #16DDFE",
"w$	c #16E0FE",
"x$	c #15E2FE",
"y$	c #16E3FE",
"z$	c #18E5FE",
"A$	c #1AE5FE",
"B$	c #1CE5FE",
"C$	c #1DE4FE",
"D$	c #1CE3FF",
"E$	c #1BE1FF",
"F$	c #3EE2FC",
"G$	c #C2F2F3",
"H$	c #DDF5F3",
"I$	c #D6F3F2",
"J$	c #CAF1F4",
"K$	c #B7ECF2",
"L$	c #83E0F4",
"M$	c #24C5FB",
"N$	c #26C0F9",
"O$	c #01A9F5",
"P$	c #008DE5",
"Q$	c #0381CE",
"R$	c #47CBF4",
"S$	c #67D7F5",
"T$	c #78DBF5",
"U$	c #83DEF4",
"V$	c #8FE2F3",
"W$	c #5CDDF8",
"X$	c #13D9FF",
"Y$	c #13DCFE",
"Z$	c #13E1FE",
"`$	c #15E3FE",
" %	c #19E6FE",
".%	c #1DE8FE",
"+%	c #23E9FE",
"@%	c #25EAFE",
"#%	c #27E9FE",
"$%	c #28E9FE",
"%%	c #28E7FF",
"&%	c #26E5FF",
"*%	c #43E6FD",
"=%	c #BDF2F4",
"-%	c #D7F4F2",
";%	c #CCF1F3",
">%	c #C4EFF4",
",%	c #96E6F5",
"'%	c #23CCFC",
")%	c #1BC7FC",
"!%	c #19BFF8",
"~%	c #00A8F1",
"{%	c #0081CE",
"]%	c #004E8F",
"^%	c #1DB6EF",
"/%	c #4FD1F5",
"(%	c #63D6F6",
"_%	c #75DCF5",
":%	c #67DCF7",
"<%	c #23D9FD",
"[%	c #10DCFF",
"}%	c #11E0FE",
"|%	c #17E4FE",
"1%	c #2BEBFE",
"2%	c #30ECFE",
"3%	c #32ECFE",
"4%	c #35ECFE",
"5%	c #35EBFE",
"6%	c #35EBFF",
"7%	c #34E9FF",
"8%	c #31E7FE",
"9%	c #73EBF8",
"0%	c #C1EFF0",
"a%	c #B9EDF1",
"b%	c #A4E8F3",
"c%	c #55DBF9",
"d%	c #0CCDFE",
"e%	c #16C9FB",
"f%	c #00B7F6",
"g%	c #00A3E7",
"h%	c #005892",
"i%	c #06A1E2",
"j%	c #31C8F5",
"k%	c #52D2F7",
"l%	c #3FD9FA",
"m%	c #0ED9FE",
"n%	c #0FDEFF",
"o%	c #1FE8FE",
"p%	c #27EAFE",
"q%	c #2FECFE",
"r%	c #34EDFE",
"s%	c #39EDFE",
"t%	c #3CEDFE",
"u%	c #3FEDFE",
"v%	c #40EDFE",
"w%	c #40ECFF",
"x%	c #3EEBFF",
"y%	c #3BE9FF",
"z%	c #5EE9FA",
"A%	c #B6ECF1",
"B%	c #ABE9F1",
"C%	c #74E3F6",
"D%	c #29D9FD",
"E%	c #15D2FE",
"F%	c #0AC9FA",
"G%	c #00B4EE",
"H%	c #0098D8",
"I%	c #06B0EA",
"J%	c #34CBF9",
"K%	c #4FD2F7",
"L%	c #2CD8FB",
"M%	c #0CDBFF",
"N%	c #15E2FF",
"O%	c #1EE7FE",
"P%	c #29EAFE",
"Q%	c #31ECFE",
"R%	c #3FEEFE",
"S%	c #45EFFE",
"T%	c #48F0FE",
"U%	c #4CF0FE",
"V%	c #4DEFFE",
"W%	c #4DEFFF",
"X%	c #4CEEFF",
"Y%	c #4AEDFF",
"Z%	c #6FECF9",
"`%	c #98E8F4",
" &	c #77E7F7",
".&	c #3BE3FE",
"+&	c #2CDEFE",
"@&	c #1FD5FB",
"#&	c #0FC7F2",
"$&	c #00A9DB",
"%&	c #0080BB",
"&&	c #16C3F7",
"*&	c #36CCFA",
"=&	c #1FDAFC",
"-&	c #0FDDFE",
";&	c #1CE4FF",
">&	c #26E8FE",
",&	c #31EBFE",
"'&	c #41EEFE",
")&	c #48EFFE",
"!&	c #4EF0FE",
"~&	c #52F1FE",
"{&	c #56F1FE",
"]&	c #58F1FE",
"^&	c #59F1FF",
"/&	c #58F0FF",
"(&	c #56F0FF",
"_&	c #5AEEFD",
":&	c #5DEBFC",
"<&	c #4AE9FE",
"[&	c #3EE6FE",
"}&	c #35E1FD",
"|&	c #22D2F3",
"1&	c #0EC0E7",
"2&	c #0083AD",
"3&	c #009BD4",
"4&	c #14C3F7",
"5&	c #13D7F8",
"6&	c #14DDFB",
"7&	c #24E6FE",
"8&	c #2EE9FE",
"9&	c #3AEDFE",
"0&	c #43EFFE",
"a&	c #4DF0FE",
"b&	c #53F2FE",
"c&	c #5BF3FE",
"d&	c #61F4FE",
"e&	c #66F4FE",
"f&	c #68F4FE",
"g&	c #69F4FF",
"h&	c #68F3FF",
"i&	c #66F2FF",
"j&	c #62F1FF",
"k&	c #5AEFFE",
"l&	c #54EDFE",
"m&	c #48E7FC",
"n&	c #39DCF5",
"o&	c #1CC5E3",
"p&	c #09A1C4",
"q&	c #00A1D6",
"r&	c #0ACDF4",
"s&	c #14DAF5",
"t&	c #28E5FA",
"u&	c #35EAFD",
"v&	c #42EEFE",
"w&	c #4BF0FE",
"x&	c #55F2FE",
"y&	c #5DF3FE",
"z&	c #6CF5FE",
"A&	c #71F5FE",
"B&	c #74F6FE",
"C&	c #75F5FF",
"D&	c #74F5FF",
"E&	c #71F4FF",
"F&	c #6DF3FE",
"G&	c #65F0FE",
"H&	c #5BECFB",
"I&	c #49E0F2",
"J&	c #33CEE5",
"K&	c #12A8C4",
"L&	c #0D96C3",
"M&	c #17CCEB",
"N&	c #27DDF2",
"O&	c #37E5F6",
"P&	c #49EDFB",
"Q&	c #5CF1FC",
"R&	c #61F1FD",
"S&	c #69F4FD",
"T&	c #72F6FD",
"U&	c #79F7FD",
"V&	c #7FF7FD",
"W&	c #82F7FE",
"X&	c #83F7FE",
"Y&	c #83F6FE",
"Z&	c #7EF5FD",
"`&	c #78F2FB",
" *	c #6AEAF5",
".*	c #5AE0ED",
"+*	c #3CC9D9",
"@*	c #1996AC",
"#*	c #1ECDE3",
"$*	c #38E0F0",
"%*	c #4EE5F6",
"&*	c #5BEAF7",
"**	c #5FE9FA",
"=*	c #6CEEFB",
"-*	c #73EEFB",
";*	c #79EDFA",
">*	c #86F3FA",
",*	c #87F3FB",
"'*	c #8BF5FA",
")*	c #8BF3F9",
"!*	c #86F1F8",
"~*	c #7BEBF2",
"{*	c #65DBE6",
"]*	c #4CCAD5",
"^*	c #137597",
"/*	c #3BBCDE",
"(*	c #25C5F3",
"_*	c #1BBFF5",
":*	c #28C0F3",
"<*	c #2DBCF1",
"[*	c #5BCFF0",
"}*	c #53CCEF",
"|*	c #2BBCF1",
"1*	c #57D0F1",
"2*	c #54D0F1",
"3*	c #24BAEA",
"4*	c #23A9CE",
"5*	c #17708E",
"6*	c #0871B5",
"7*	c #0B83C6",
"8*	c #0E8CD4",
"9*	c #0E81D1",
"0*	c #0477D1",
"a*	c #017FD3",
"b*	c #0376B6",
"c*	c #056EAF",
"                        . + @ # $ % & *                         ",
"                  = - ; > , ' ) ! ~ { ] ^ / (                   ",
"                _ : < [ } | 1 2 3 4 5 6 7 8 9 0                 ",
"            a b c d e f g h i j k l m n o p q r s t             ",
"          u v w x y z A B C D E F G H I J K L M N O P           ",
"        Q R S T U V W X Y Z `  ...+.@.#.$.%.&.*.=.-.;.>.        ",
"      ,.'.).!.~.{.].^./.(._.:.<.[.}.|.1.2.3.4.5.6.7.8.9.0.      ",
"      a.b.c.d.e.f.g.h.i.j.k.l.m.n.o.p.q.r.s.t.u.v.w.x.y.z.      ",
"    A.B.C.D.E.F.G.H.I.J.K.L.M.N.O.P.Q.R.S.T.U.V.W.X.Y.Z.`. +    ",
"  .+++@+#+$+%+&+*+=+-+;+>+,+'+)+!+!+~+Q.{+]+^+/+(+_+:+<+[+}+|+  ",
"  1+2+3+4+5+6+7+8+9+0+a+b+c+d+)+e+f+g+h+i+j+k+l+m+n+o+p+q+r+s+  ",
"  t+u+v+w+x+y+z+A+B+C+D+E+F+G+H+G+G+I+I+J+K+L+M+N+O+P+Q+R+S+T+  ",
"U+V+W+X+Y+Z+`+ @.@+@@@#@$@%@&@*@*@=@-@-@;@>@,@'@)@!@~@{@]@^@/@(@",
"_@:@<@[@}@|@1@2@3@4@5@6@7@8@9@-@-@-@-@-@9@0@a@b@)@c@d@e@f@g@h@i@",
"j@k@l@m@n@o@p@q@r@s@t@u@v@w@x@y@z@A@B@C@D@E@F@G@H@I@J@K@L@M@N@O@",
"P@Q@R@S@T@U@V@W@X@Y@Z@`@ #.#+#@###$#%#&#*#=#-#;#>#,#'#)#!#~#{#]#",
"^#/#(#_#:#<#[#}#|#1#2#3#4#5#6#7#8#9#0#a#b#c#d#e#f#g#h#i#j#k#l#m#",
"n#o#p#q#r#s#t#u#v#w#x#y#z#A#B#C#D#E#F#G#H#I#J#I#K#L#M#N#O#P#Q#R#",
"S#T#U#V#W#X#Y#Z#`# $B#.$+$@$#$$$%$&$*$=$-$;$>$,$'$)$!$~${$]$^$/$",
"($_$:$<$[$}$|$1$ $2$3$#$4$5$6$7$8$9$0$a$b$c$d$e$f$g$h$i$j$k$l$m$",
"  n$o$p$q$r$s$t$u$%$v$w$x$y$z$A$B$C$D$E$F$G$H$I$J$K$L$M$N$O$P$  ",
"  Q$R$S$T$U$V$W$X$Y$Z$`$ %.%+%@%#%$%%%&%*%=%-%;%>%,%'%)%!%~%{%  ",
"  ]%^%/%(%_%:%<%[%}%|%.%@%1%2%3%4%5%6%7%8%9%0%a%b%c%d%e%f%g%h%  ",
"    i%j%k%:$l%m%n%y$o%p%q%r%s%t%u%v%w%x%y%z%A%B%C%D%E%F%G%H%    ",
"      I%J%K%L%M%N%O%P%Q%s%R%S%T%U%V%W%X%Y%Z%`% &.&+&@&#&$&      ",
"      %&&&*&=&-&;&>&,&s%'&)&!&~&{&]&^&/&(&_&:&<&[&}&|&1&2&      ",
"        3&4&5&6&7&8&9&0&a&b&c&d&e&f&g&h&i&j&k&l&m&n&o&p&        ",
"          q&r&s&t&u&v&w&x&y&e&z&A&B&C&D&E&F&G&H&I&J&K&          ",
"            L&M&N&O&P&Q&R&S&T&U&V&W&X&Y&Z&`& *.*+*@*            ",
"                #*$*%*&***=*-*;*>*,*'*)*!*~*{*]*                ",
"                  ^*/*(*_*:*<*[*}*|*1*2*3*4*5*                  ",
"                        6*7*8*9*0*a*b*c*                        "};
