/* XPM */
static char * icon_pipe_20x20_xpm[] = {
"20 20 124 2",
"  	c None",
". 	c #ACACAC",
"+ 	c #7F7F7F",
"@ 	c #797979",
"# 	c #606060",
"$ 	c #383838",
"% 	c #BCBCBC",
"& 	c #949494",
"* 	c #B5B5B5",
"= 	c #C0C0C0",
"- 	c #B2B2B2",
"; 	c #AAAAAA",
"> 	c #8E8E8E",
", 	c #757575",
"' 	c #3C3C3C",
") 	c #7C7C7C",
"! 	c #A1A1A1",
"~ 	c #D1D1D1",
"{ 	c #E1E1E1",
"] 	c #DDDDDD",
"^ 	c #D5D5D5",
"/ 	c #CDCDCD",
"( 	c #C3C3C3",
"_ 	c #BABABA",
": 	c #AEAEAE",
"< 	c #A3A3A3",
"[ 	c #595959",
"} 	c #5B5B5B",
"| 	c #515151",
"1 	c #888888",
"2 	c #C4C4C4",
"3 	c #D8D8D8",
"4 	c #DADADA",
"5 	c #DBDBDB",
"6 	c #D6D6D6",
"7 	c #CECECE",
"8 	c #CACACA",
"9 	c #D0D0D0",
"0 	c #979797",
"a 	c #484848",
"b 	c #222222",
"c 	c #1D1D1D",
"d 	c #393939",
"e 	c #5C5C5C",
"f 	c #6A6A6A",
"g 	c #A9A9A9",
"h 	c #B8B8B8",
"i 	c #D4D4D4",
"j 	c #EBEBEB",
"k 	c #090909",
"l 	c #030303",
"m 	c #131313",
"n 	c #242424",
"o 	c #111111",
"p 	c #262626",
"q 	c #303030",
"r 	c #5D5D5D",
"s 	c #707070",
"t 	c #838383",
"u 	c #AFAFAF",
"v 	c #BDBDBD",
"w 	c #C6C6C6",
"x 	c #C9C9C9",
"y 	c #1B1B1B",
"z 	c #0C0C0C",
"A 	c #161616",
"B 	c #252525",
"C 	c #3D3D3D",
"D 	c #5A5A5A",
"E 	c #404040",
"F 	c #070707",
"G 	c #0D0D0D",
"H 	c #2D2D2D",
"I 	c #4C4C4C",
"J 	c #6E6E6E",
"K 	c #7D7D7D",
"L 	c #8D8D8D",
"M 	c #9B9B9B",
"N 	c #969696",
"O 	c #020202",
"P 	c #151515",
"Q 	c #1F1F1F",
"R 	c #4D4D4D",
"S 	c #737373",
"T 	c #050505",
"U 	c #0A0A0A",
"V 	c #1E1E1E",
"W 	c #2A2A2A",
"X 	c #373737",
"Y 	c #454545",
"Z 	c #545454",
"` 	c #636363",
" .	c #777777",
"..	c #040404",
"+.	c #0F0F0F",
"@.	c #282828",
"#.	c #424242",
"$.	c #696969",
"%.	c #989898",
"&.	c #A0A0A0",
"*.	c #000000",
"=.	c #0E0E0E",
"-.	c #181818",
";.	c #2E2E2E",
">.	c #505050",
",.	c #171717",
"'.	c #3E3E3E",
").	c #6B6B6B",
"!.	c #9D9D9D",
"~.	c #333333",
"{.	c #313131",
"].	c #666666",
"^.	c #9E9E9E",
"/.	c #CCCCCC",
"(.	c #7E7E7E",
"_.	c #141414",
":.	c #444444",
"<.	c #5F5F5F",
"[.	c #8C8C8C",
"}.	c #B6B6B6",
"|.	c #868686",
"1.	c #898989",
"2.	c #3A3A3A",
"3.	c #8F8F8F",
"                                        ",
"                                        ",
"                                        ",
"                                        ",
"                                        ",
"    . + @ # $                           ",
"  % & * = - ; > , '                     ",
") ! ~ { ] ^ / ( _ : < > [ } } |         ",
"& 1 2 ~ 3 4 5 4 6 7 8 9 0 a b c d b     ",
"e f 0 g h 2 / i 3 3 j & k l k m n d o   ",
"p q r s t & < u v w x y l z A B C D E   ",
"F G H ' I r J K L M N O k P Q q R S ,   ",
"  T U P V W X Y Z `  ...+.y @.#.$.%.&.  ",
"    *.F G =.o -.b ;.>.+.,.n '.).!.= 0   ",
"              o z G ~.{.p '.].^./.( s (.",
"                    _.:.$ <.[.}._ |.1.+ ",
"                          2.# ) 3.+     ",
"                                        ",
"                                        ",
"                                        "};
