/* XPM */
static char * icon_folder_home_20x20_xpm[] = {
"20 20 118 2",
"  	c None",
". 	c #85752A",
"+ 	c #88782B",
"@ 	c #87772A",
"# 	c #80722F",
"$ 	c #DBCF94",
"% 	c #D5C57C",
"& 	c #D1C071",
"* 	c #D8CA87",
"= 	c #837533",
"- 	c #DDD199",
"; 	c #D3C378",
"> 	c #D7C984",
", 	c #D4C479",
"' 	c #D6C781",
") 	c #807230",
"! 	c #746624",
"~ 	c #736523",
"{ 	c #736623",
"] 	c #6D6121",
"^ 	c #8A792B",
"/ 	c #F4F0DD",
"( 	c #E9E1BB",
"_ 	c #E4DBAE",
": 	c #EBE3BF",
"< 	c #E7DEB5",
"[ 	c #EBE5C3",
"} 	c #EBE5C5",
"| 	c #E6DDB2",
"1 	c #E9E1BC",
"2 	c #E5DCB1",
"3 	c #E7E0B8",
"4 	c #D6C780",
"5 	c #DCCF92",
"6 	c #D7C780",
"7 	c #D5C67E",
"8 	c #D1C172",
"9 	c #D8CA86",
"0 	c #D9CB8A",
"a 	c #D8C983",
"b 	c #CEBC69",
"c 	c #726523",
"d 	c #DFD49D",
"e 	c #D4C57C",
"f 	c #768186",
"g 	c #30436F",
"h 	c #5976A9",
"i 	c #3F516F",
"j 	c #D2C375",
"k 	c #D1C070",
"l 	c #D0BF6D",
"m 	c #CEBC66",
"n 	c #726423",
"o 	c #DDD197",
"p 	c #9D9D82",
"q 	c #48608B",
"r 	c #86A4D8",
"s 	c #92B2E3",
"t 	c #7493C7",
"u 	c #283D6D",
"v 	c #A09F8C",
"w 	c #81847B",
"x 	c #283651",
"y 	c #535A58",
"z 	c #465164",
"A 	c #6280B8",
"B 	c #59729F",
"C 	c #384C71",
"D 	c #516B9A",
"E 	c #799AD3",
"F 	c #6480B4",
"G 	c #324776",
"H 	c #364C74",
"I 	c #667FAC",
"J 	c #5B7CBF",
"K 	c #404950",
"L 	c #DACD8F",
"M 	c #717771",
"N 	c #575F64",
"O 	c #A2A188",
"P 	c #8A8C79",
"Q 	c #71776E",
"R 	c #4C5A70",
"S 	c #455C88",
"T 	c #6685C1",
"U 	c #6A8AC5",
"V 	c #6079A3",
"W 	c #424B57",
"X 	c #A29A65",
"Y 	c #6C5F21",
"Z 	c #DFD39B",
"` 	c #D4C47A",
" .	c #D2C274",
"..	c #D0C06E",
"+.	c #D1C171",
"@.	c #7C7F74",
"#.	c #324361",
"$.	c #3B4E6F",
"%.	c #6C716C",
"&.	c #D2C273",
"*.	c #DCD093",
"=.	c #D3C479",
"-.	c #CFBE6A",
";.	c #D4C57B",
">.	c #D1C06F",
",.	c #D0BE6B",
"'.	c #D3C376",
").	c #CFBD6B",
"!.	c #6F6122",
"~.	c #7F7F7F",
"{.	c #CFBD69",
"].	c #CEBD69",
"^.	c #CBB964",
"/.	c #675B1F",
"(.	c #756724",
"_.	c #6E6121",
":.	c #716322",
"<.	c #6B5E20",
"                                        ",
"                                        ",
"                                        ",
"        . + @ .                         ",
"      # $ % & * =                       ",
"    @ - * ; > , ' ) ! ~ ~ { { ~ ]       ",
"    ^ / ( _ : < [ } | 1 2 3 _ 4 !       ",
"    ^ < 5 % 4 * 6 > 7 8 9 0 a b c       ",
"    ^ d e f g h i , j j k % l m n       ",
"    ^ o p q r s t u v 8 , w x y n       ",
"    ^ d z A B C D E F G H I J K n       ",
"    ^ L M N O P Q R S T U V W X Y       ",
"    ^ Z `  .l ..+. .@.#.$.%.&.m n       ",
"    ^ *.` +.=.-.;.>., ..+.,.'.).!.~.~.~.",
"    ^ 8 {.].].m m m m m m m m ^.!.~.~.  ",
"    /.(._._._.:.:.:.:.:.:.:.:._.<.~.    ",
"                                        ",
"                                        ",
"                                        ",
"                                        "};
